<svg xmlns="http://www.w3.org/2000/svg" width="386" height="827" fill="none" viewBox="0 0 386 827">
    <mask id="vg108ew56a" width="386" height="827" x="0" y="0" maskUnits="userSpaceOnUse">
        <path fill="#C4C4C4" d="M0 0H386V827H0z"/>
    </mask>
    <g mask="url(#vg108ew56a)">
        <path fill="#E5F1FF" d="M314.458 174.458c9.289-9.289 9.289-24.35 0-33.639-9.289-9.289-24.35-9.289-33.639 0-9.289 9.289-9.289 24.35 0 33.639 9.289 9.289 24.35 9.289 33.639 0zM419 434c-108.8 0-197 88.2-197 197s88.2 197 197 197 197-88.2 197-197-88.2-197-197-197zm0 331.886c-74.5 0-134.89-60.395-134.89-134.89 0-74.496 60.395-134.89 134.89-134.89 74.5 0 134.89 60.394 134.89 134.89 0 74.495-60.39 134.89-134.89 134.89z"/>
        <circle cx="148" cy="11" r="135" stroke="#E6F1FF" stroke-width="24"/>
    </g>
</svg>
