<svg width="542" height="340" viewBox="0 0 542 340" fill="none" xmlns="http://www.w3.org/2000/svg">
<path d="M435.086 190.424V171.478H451.774V155.217H449.26V168.964H432.572V187.91H415.411V209.943H417.925V190.424H435.086Z" fill="#FFAA00"/>
<path d="M141.481 143.16V124.214H124.787V107.953H127.301V121.7H143.995V140.646H161.151V162.679H158.636V143.16H141.481Z" fill="#FEFEFE"/>
<path d="M165.676 220.834C174.56 220.834 181.766 213.629 181.766 204.744C181.766 195.86 174.56 188.654 165.676 188.654C156.791 188.654 149.586 195.86 149.586 204.744C149.586 213.629 156.791 220.834 165.676 220.834ZM165.676 218.32C158.179 218.32 152.1 212.241 152.1 204.744C152.1 197.247 158.179 191.168 165.676 191.168C173.173 191.168 179.252 197.247 179.252 204.744C179.252 212.241 173.173 218.32 165.676 218.32Z" fill="#F29DA3"/>
<path d="M380.627 39.0684C377.017 39.0684 374.09 36.1419 374.09 32.5319C374.09 28.9219 377.017 25.9954 380.627 25.9954C384.237 25.9954 387.163 28.9219 387.163 32.5319C387.163 36.1419 384.237 39.0684 380.627 39.0684Z" fill="#FF7C1D"/>
<path d="M182.268 7.89426L194.587 32.5319H169.95L182.268 7.89426Z" fill="#FD7C2F"/>
<path d="M403.036 7.47314H416.094V19.66H403.036V7.47314Z" fill="#43C4FF"/>
<path d="M59.5919 337.738C70.1459 316.404 83.7218 309.123 100.314 315.906C116.907 322.689 126.908 317.817 130.327 301.305C131.78 295.392 133.445 291.505 135.32 289.634C148.187 276.828 166.655 279.347 184.535 294.718C197.327 305.362 204.617 319.702 206.412 337.738H59.5919Z" fill="#67CF00"/>
<path d="M157.598 295.437C153.308 293.155 153.529 284.349 158.092 275.768C162.655 267.187 169.833 262.08 174.123 264.362C178.414 266.643 178.193 275.449 173.63 284.031C169.066 292.612 161.889 297.719 157.598 295.437Z" fill="#46AB00"/>
<path d="M166.545 277.572C157.499 292.179 152.154 308.324 150.505 325.993L151.008 326.038C152.652 308.44 157.972 292.375 166.977 277.833L166.545 277.572Z" fill="#3F3643"/>
<path d="M146.258 274.181C141.446 273.505 138.641 265.154 139.994 255.529C141.347 245.904 146.345 238.65 151.158 239.326C155.97 240.003 158.775 248.354 157.422 257.979C156.069 267.604 151.071 274.858 146.258 274.181Z" fill="#46AB00"/>
<path d="M148.021 255.876C146.699 269.175 146.055 280.131 146.1 288.749C146.141 297.368 146.895 310.285 148.363 327.511L148.866 327.471C147.403 310.26 146.648 297.348 146.608 288.749C146.568 280.151 147.207 269.21 148.529 255.931L148.021 255.876Z" fill="#3F3643"/>
<path d="M110.159 251.196C104.446 243.333 103.002 234.644 106.933 231.787C110.865 228.931 118.683 232.989 124.396 240.852C130.109 248.715 131.553 257.405 127.622 260.261C123.69 263.118 115.872 259.059 110.159 251.196Z" fill="#46AB00"/>
<path d="M114.846 243.904C131.343 261.98 142.173 289.856 147.337 327.526L147.835 327.456C142.661 289.695 131.79 261.728 115.218 243.562L114.846 243.904Z" fill="#3F3643"/>
<path d="M112.54 293.98C105.549 287.228 102.619 278.921 105.995 275.426C109.371 271.93 117.775 274.57 124.766 281.322C131.757 288.074 134.688 296.381 131.312 299.877C127.936 303.372 119.531 300.732 112.54 293.98Z" fill="#46AB00"/>
<path d="M117.038 285.803C131.092 297.936 140.197 311.899 144.371 327.697L144.858 327.566C140.66 311.668 131.494 297.614 117.365 285.421L117.038 285.803Z" fill="#3F3643"/>
<path d="M113.895 337.653C122.896 319.778 132.67 313.96 143.214 320.205C153.758 326.45 160.571 325.138 163.659 316.258C165.449 312.17 167.218 309.541 168.973 308.369C177.375 302.753 188.125 304.452 195.879 312.15C206.06 322.262 213.09 330.789 216.971 337.738L113.895 337.653Z" fill="#4AA900"/>
<path d="M446.216 264.488C442.285 261.631 443.729 252.942 449.442 245.079C455.155 237.216 462.973 233.157 466.905 236.014C470.836 238.87 469.392 247.56 463.679 255.423C457.966 263.286 450.148 267.344 446.216 264.488Z" fill="#41AD00"/>
<path d="M458.928 248.127C442.431 266.203 431.601 294.078 426.437 331.749L425.939 331.678C431.113 293.917 441.984 265.951 458.556 247.785L458.928 248.127Z" fill="#3F3643"/>
<path d="M442.529 304.09C439.153 300.594 442.084 292.287 449.075 285.535C456.066 278.783 464.47 276.143 467.846 279.639C471.222 283.134 468.291 291.442 461.3 298.194C454.309 304.946 445.905 307.585 442.529 304.09Z" fill="#41AD00"/>
<path d="M456.726 290.026C442.673 302.158 433.567 316.121 429.393 331.92L428.906 331.789C433.104 315.89 442.27 301.837 456.399 289.644L456.726 290.026Z" fill="#3F3643"/>
<path d="M483.46 337.737H336.64C337.455 329.552 348.149 305.864 364.797 297.513C384.749 287.507 402.599 306.317 406.169 311.31C417.718 327.46 426.145 322.718 442.738 315.956C459.331 309.193 472.907 316.453 483.46 337.737Z" fill="#63D100"/>
<path d="M393.04 297.024C388.749 294.743 388.971 285.937 393.534 277.355C398.097 268.774 405.274 263.667 409.565 265.949C413.855 268.231 413.634 277.037 409.071 285.618C404.508 294.199 397.331 299.306 393.04 297.024Z" fill="#41AD00"/>
<path d="M401.985 279.16C392.94 293.767 387.595 309.912 385.946 327.581L386.448 327.626C388.093 310.027 393.412 293.963 402.418 279.421L401.985 279.16Z" fill="#3F3643"/>
<path d="M355.514 282.583C350.802 274.082 350.428 265.282 354.678 262.926C358.929 260.57 366.194 265.551 370.906 274.051C375.618 282.552 375.992 291.353 371.742 293.709C367.492 296.065 360.226 291.083 355.514 282.583Z" fill="#41AD00"/>
<path d="M362.188 276.088C372.078 291.801 376.709 307.815 376.08 324.146L376.583 324.166C377.217 307.735 372.556 291.615 362.615 275.821L362.188 276.088Z" fill="#3F3643"/>
<path d="M299.171 337.652C307.04 324.081 316.251 320.421 326.795 326.665C342.613 336.038 342.307 324.232 353.947 311.249C359.312 305.266 373.406 304.446 381.159 312.144C391.336 322.261 398.365 330.789 402.247 337.737L299.171 337.652Z" fill="#46AB00"/>
<path d="M302.214 17.2264C305.769 8.45237 303.094 3.79133 294.184 3.22818C280.819 2.38849 270.517 -2.33792 266.308 13.3648C262.1 29.0676 223.157 29.9626 214.77 39.9383C206.383 49.9141 212 64.5056 209.174 66.4062C198.856 73.3601 182.545 75.1752 185.16 95.0965C186.688 106.727 203.588 119.397 236.617 103.242L281.327 28.6804L302.214 17.2264Z" fill="#0A0F43"/>
<path d="M264.775 51.518L270.386 27.1468C269.959 24.1149 269.476 20.6757 268.938 16.8342C268.128 11.067 273.498 -3.25302 290.041 2.49912C299.795 5.88806 304.064 13.5458 301.842 23.8333C301.55 25.1809 297.427 39.0333 283.344 32.5621L282.66 60.2418L264.775 51.518Z" fill="#FFA09B"/>
<path d="M298.362 22.8679L298.126 22.3702C297.146 22.8378 296.2 23.054 295.295 23.0188C294.405 22.9836 293.681 22.707 293.113 22.1891L292.741 22.5964C293.41 23.2048 294.26 23.5266 295.275 23.5668C296.276 23.6071 297.307 23.3758 298.362 22.8679Z" fill="#0A0F43"/>
<path d="M298.83 7.55738C291.072 15.5671 284.047 18.3125 277.767 15.7884C277.888 15.1045 277.923 14.6369 277.863 14.3855C277.647 13.4101 277.114 12.9475 277.023 12.8972C273.539 10.9564 271.648 14.3805 272.528 19.0415L268.43 35.7147C263.548 18.594 265.278 7.60263 273.629 2.74046C281.981 -2.12171 290.378 -0.512716 298.83 7.55738Z" fill="#0A0F43"/>
<path d="M209.441 154.368C225.003 162.714 236.658 167.27 244.416 168.034C275.128 171.061 298.559 161.658 303.969 156.922C302.968 147.107 299.946 141.305 294.903 139.525C286.114 136.417 257.63 141.365 209.441 154.368Z" fill="#FF6798"/>
<path d="M286.974 135.105L293.41 213.171L269.989 324.664H250.907L256.74 221.835L245.643 149.762L286.974 135.105Z" fill="#003EBD"/>
<path d="M225.018 150.471L232.409 222.146L216.55 324.911L235.783 324.664L269.275 211.19L265.443 142.647L225.018 150.471Z" fill="#2163E9"/>
<path d="M229.03 100.16C222.408 98.9983 215.952 98.3346 212.473 98.3346C210.004 98.3346 207.791 98.2542 206.348 98.2391C206.218 98.2391 206.097 98.2391 205.981 98.2391C205.448 98.2391 208.938 92.6479 213.448 83.899C220.97 69.3125 233.334 48.1945 249.288 46.0475L267.037 43.0909C276.178 50.8694 279.919 46.6559 283.052 43.3222C293.43 50.3716 296.688 73.9534 299.232 113.67C299.785 122.288 301.364 136.8 303.969 157.209C301.701 149.546 301.701 138.876 277.677 142.542C273.302 143.21 260.702 144.563 246.397 149.174C228.698 154.876 211.764 154.614 209.441 154.368C214.655 148.319 218.617 142.044 221.337 135.538C225.797 124.848 231.494 108.089 238.417 85.2515L229.03 100.16Z" fill="#C42127"/>
<path d="M307.338 55.8221C309.404 53.0918 310.968 52.3678 312.366 52.7851C313.764 53.2025 313.331 54.3438 311.687 57.2048L307.338 55.8221Z" fill="#FFA09B"/>
<path d="M327.339 62.3787C305.01 53.7505 279.789 63.6961 269.335 85.2515L202.914 222.252C202.783 222.524 202.663 222.795 202.557 223.077C200.46 228.537 203.186 234.661 208.641 236.758L327.923 282.554C333.378 284.651 339.502 281.92 341.599 276.46L407.527 104.685C409.619 99.2347 406.909 93.1155 401.464 91.0137L327.339 62.3787Z" fill="#FFBD00"/>
<path d="M285.375 63.4799C283.967 64.3447 282.514 65.1391 281.021 65.8481L253.426 78.9865L198.731 221.493C196.634 226.953 199.359 233.078 204.82 235.174L324.971 281.307C330.427 283.404 336.551 280.673 338.648 275.213L404.566 103.463C404.576 103.463 404.576 103.458 404.581 103.458C406.673 97.9978 403.942 91.8735 398.477 89.7919L302.375 53.0114L285.375 63.4799Z" fill="#FFF4D6"/>
<path d="M253.819 78.8407L278.823 86.7549C285.33 88.8165 292.278 85.2415 294.39 78.7502L302.802 52.9108L253.819 78.8407Z" fill="#FFBD00"/>
<path d="M376.444 130.459L269.461 89.3897C267.088 88.4796 264.428 89.6662 263.513 92.0395L260.375 100.21C259.465 102.583 260.647 105.248 263.02 106.158L370.008 147.228C372.381 148.138 375.041 146.951 375.956 144.578L379.094 136.407C380.004 134.034 378.817 131.369 376.444 130.459Z" fill="#FFBC00"/>
<path d="M336.264 146.665L256.458 116.034C255.478 115.656 254.316 116.315 253.859 117.502L253.366 118.794C252.908 119.981 253.336 121.248 254.316 121.625L334.117 152.256C335.098 152.633 336.259 151.974 336.717 150.788L337.209 149.495C337.667 148.309 337.24 147.042 336.264 146.665Z" fill="#FFBC00"/>
<path d="M326.128 174.515L246.322 143.879C245.341 143.502 244.18 144.161 243.722 145.347L243.229 146.64C242.772 147.826 243.199 149.093 244.18 149.47L323.981 180.102C324.961 180.479 326.123 179.82 326.58 178.633L327.073 177.341C327.53 176.154 327.108 174.887 326.128 174.515Z" fill="#FFBC00"/>
<path d="M316.046 202.21L236.24 171.574C235.26 171.197 234.098 171.855 233.641 173.042L233.148 174.334C232.69 175.521 233.118 176.788 234.098 177.165L313.904 207.796C314.885 208.173 316.046 207.515 316.504 206.328L316.997 205.036C317.449 203.849 317.027 202.582 316.046 202.21Z" fill="#FFBC00"/>
<path d="M331.905 158.637L252.099 128C251.118 127.623 249.957 128.282 249.499 129.469L249.007 130.761C248.549 131.947 248.976 133.215 249.957 133.592L329.763 164.223C330.743 164.6 331.905 163.941 332.362 162.755L332.855 161.462C333.308 160.281 332.885 159.014 331.905 158.637Z" fill="#FFBC00"/>
<path d="M321.768 186.482L241.962 155.846C240.982 155.469 239.82 156.128 239.363 157.314L238.87 158.606C238.412 159.793 238.84 161.06 239.82 161.437L319.626 192.073C320.607 192.451 321.768 191.792 322.226 190.605L322.719 189.313C323.176 188.126 322.749 186.859 321.768 186.482Z" fill="#FFBC00"/>
<path d="M311.692 214.177L231.886 183.541C230.906 183.164 229.744 183.822 229.286 185.009L228.794 186.301C228.336 187.488 228.764 188.755 229.744 189.132L309.55 219.768C310.53 220.145 311.692 219.487 312.149 218.3L312.642 217.008C313.095 215.821 312.672 214.554 311.692 214.177Z" fill="#FFBC00"/>
<path d="M367.604 157.767L350.594 151.577C347.985 150.627 345.099 151.974 344.148 154.584L340.88 163.559C339.93 166.169 341.277 169.055 343.887 170.005L359.952 175.848C362.561 176.798 365.447 175.451 366.398 172.841L370.008 162.921C370.767 160.834 369.691 158.526 367.604 157.767Z" fill="#FFBD00"/>
<path d="M348.245 157.219L350.03 163.249L368.106 154.858C369.119 154.385 370.321 154.805 370.818 155.807C371.295 156.767 370.904 157.941 369.947 158.428C369.929 158.438 369.915 158.445 369.894 158.453L351.555 167.057C349.703 167.928 347.506 167.124 346.652 165.268C346.592 165.144 346.542 165.016 346.503 164.884L344.377 158.47C344.025 157.4 344.601 156.241 345.667 155.878C345.678 155.875 345.689 155.871 345.699 155.868C346.77 155.523 347.911 156.11 348.249 157.187C348.242 157.194 348.245 157.205 348.245 157.219Z" fill="#141B5E"/>
<path d="M357.211 185.798L340.201 179.609C337.592 178.658 334.705 180.006 333.755 182.616L330.487 191.591C329.537 194.2 330.884 197.086 333.494 198.037L349.558 203.884C352.168 204.835 355.054 203.487 356.005 200.878L359.615 190.957C360.374 188.865 359.298 186.558 357.211 185.798Z" fill="#FFBD00"/>
<path d="M346.813 213.83L329.803 207.64C327.194 206.69 324.307 208.038 323.357 210.647L320.089 219.622C319.139 222.232 320.486 225.118 323.096 226.068L339.16 231.916C341.77 232.866 344.656 231.519 345.606 228.909L349.217 218.989C349.976 216.902 348.9 214.594 346.813 213.83Z" fill="#FFBD00"/>
<path d="M335.862 183.39L337.646 189.42L355.718 181.026C356.732 180.553 357.934 180.972 358.431 181.975C358.908 182.935 358.517 184.108 357.56 184.595C357.542 184.606 357.528 184.613 357.507 184.62L339.168 193.224C337.316 194.095 335.119 193.292 334.265 191.436C334.205 191.312 334.155 191.184 334.116 191.052L331.99 184.638C331.638 183.568 332.214 182.409 333.28 182.046C333.291 182.043 333.302 182.039 333.312 182.035C334.383 181.691 335.524 182.277 335.862 183.355C335.854 183.369 335.858 183.379 335.862 183.39Z" fill="#141B5E"/>
<path d="M323.393 210.564L325.178 216.594L343.25 208.2C344.263 207.727 345.465 208.146 345.962 209.149C346.439 210.109 346.048 211.282 345.091 211.769C345.074 211.78 345.059 211.787 345.038 211.794L326.699 220.398C324.847 221.269 322.65 220.466 321.796 218.61C321.736 218.486 321.686 218.358 321.647 218.226L319.521 211.812C319.169 210.742 319.745 209.583 320.812 209.22C320.822 209.217 320.833 209.213 320.844 209.209C321.914 208.865 323.055 209.451 323.393 210.529C323.386 210.543 323.389 210.553 323.393 210.564Z" fill="#141B5E"/>
<path d="M303.969 63.4095C307.252 59.9753 310.178 57.3556 312.738 55.5405C315.297 53.7304 319.671 56.0131 326.047 61.9513C323.9 65.0134 321.844 66.9995 319.682 68.3521C316.257 70.4941 313.311 70.9617 312.451 71.2483C311.963 71.4092 310.616 71.1728 310.168 70.489C309.781 69.8957 310.671 69.6594 310.209 69.77C307.197 70.4991 305.889 70.0717 306.282 68.4929C305.563 68.4728 303.984 68.5482 303.526 67.9398C303.406 67.7839 303.35 67.5325 303.365 67.2358C303.375 67.0649 303.506 66.7682 303.612 66.547C303.667 66.4263 304.089 66.009 303.999 65.9788C302.812 65.5816 302.802 64.7268 303.969 63.4095Z" fill="#FDA09D"/>
<path d="M248.157 115.174C249.077 126.552 247.649 133.868 243.873 137.116L239.75 127.04C241.64 123.561 243.159 121.016 244.3 119.407C245.447 117.793 246.729 116.386 248.157 115.174Z" fill="#FF6999"/>
<path d="M234.103 115.792H251.294C257.992 112.112 267.812 107.189 271.196 106.993C274.761 107.129 277.063 107.435 278.109 107.913C278.934 108.29 278.496 110.397 276.249 111.021C275.796 111.146 274.489 111.181 273.544 111.574C272.91 111.835 272.548 112.217 272.448 112.72C272.704 113.278 273.317 113.278 273.72 113.293C278.139 113.424 281.021 113.012 282.403 113.122C284.782 113.313 287.004 115.249 283.424 115.672C281.267 115.923 279.643 116.592 277.174 116.873C279.698 116.848 281.815 116.692 283.53 116.401H285.767C286.38 116.401 286.873 116.898 286.873 117.512C286.873 117.969 286.592 118.382 286.164 118.548C283.982 119.392 281.297 119.779 278.109 119.709L283.424 120.116C284.993 119.9 285.943 119.835 286.27 119.93C287.869 120.383 286.089 122.379 283.082 122.887C281.247 123.103 279.588 123.209 278.109 123.209L281.895 123.49C282.202 123.515 282.428 123.777 282.408 124.084C282.393 124.254 282.303 124.41 282.162 124.506C281.538 124.918 280.648 125.29 279.497 125.612C278.989 125.753 277.762 126.07 277.174 126.2C274.876 126.718 272.327 127.07 268.485 127.296H261.612L234.098 127.322C232.675 127.337 232.675 123.495 234.103 115.792Z" fill="#FFA09B"/>
<path d="M248.157 115.174C245.045 118.91 243.224 122.123 242.701 124.813C242.179 127.503 242.566 131.606 243.873 137.111L199.234 130.861C195.905 130.394 193.587 127.322 194.05 123.993C194.125 123.455 194.271 122.927 194.487 122.429C196.725 117.235 198.303 113.61 199.223 111.548C200.531 108.627 202.829 103.951 206.127 97.5302L230.327 98.0883L221.377 112.418L248.157 115.174Z" fill="#C42127"/>
<path d="M221.89 134.597L243.893 137.187L243.707 136.292L222.011 133.602L221.89 134.597Z" fill="white"/>
<path d="M235.783 324.664L257.931 333.549L259.651 337.667H211.945L216.887 324.664H235.783Z" fill="#151E5C" stroke="#151E5C"/>
<path d="M269.974 324.664L292.123 333.549L293.842 337.667H246.136L251.078 324.664H269.974Z" fill="#151E5C" stroke="#151E5C"/>
<path d="M215.409 112.474L247.543 115.863L248.222 115.174L215.515 111.478L215.409 112.474Z" fill="white"/>
<path d="M386.666 63.4095L371.35 103.307C369.208 108.884 371.994 115.133 377.57 117.275C383.141 119.417 389.396 116.632 391.538 111.061L406.854 71.1628C408.996 65.5866 406.21 59.3367 400.634 57.1947C395.058 55.0528 388.808 57.8383 386.666 63.4095ZM389.014 64.3095C390.658 60.0306 395.455 57.8936 399.734 59.5378C404.013 61.182 406.15 65.9788 404.506 70.2577L389.19 110.156C387.546 114.435 382.749 116.572 378.47 114.927C374.191 113.283 372.054 108.486 373.698 104.207L389.014 64.3095Z" fill="#FFBE00"/>
<path d="M283.344 32.5521C279.653 30.5358 277.576 28.4994 277.124 26.4379C278.265 31.6219 280.271 36.3332 283.142 40.5769L283.344 32.5521Z" fill="#E07871"/>
<path d="M541.023 340H0V337.486H541.023V340Z" fill="#151E5C"/>
</svg>
