<svg width="602" height="602" viewBox="0 0 602 602" fill="none" xmlns="http://www.w3.org/2000/svg">
<path opacity="0.1" fill-rule="evenodd" clip-rule="evenodd" d="M301 421C367.274 421 421 367.274 421 301C421 234.726 367.274 181 301 181C234.726 181 181 234.726 181 301C181 367.274 234.726 421 301 421Z" stroke="#C42127"/>
<path opacity="0.08" fill-rule="evenodd" clip-rule="evenodd" d="M301 481C400.411 481 481 400.411 481 301C481 201.589 400.411 121 301 121C201.589 121 121 201.589 121 301C121 400.411 201.589 481 301 481Z" stroke="#C42127"/>
<path opacity="0.06" fill-rule="evenodd" clip-rule="evenodd" d="M301 541C433.548 541 541 433.548 541 301C541 168.452 433.548 61 301 61C168.452 61 61 168.452 61 301C61 433.548 168.452 541 301 541Z" stroke="#C42127"/>
<path opacity="0.04" fill-rule="evenodd" clip-rule="evenodd" d="M301 601C466.685 601 601 466.685 601 301C601 135.315 466.685 1 301 1C135.315 1 1 135.315 1 301C1 466.685 135.315 601 301 601Z" stroke="#C42127"/>
<rect x="252" y="252" width="98" height="98" rx="49" fill="#C42127" fill-opacity="0.05"/>
<rect x="262" y="262" width="78" height="78" rx="39" fill="#C42127" fill-opacity="0.1"/>
<rect x="272" y="272" width="58" height="58" rx="29" fill="#C42127"/>
<path d="M301 293L299.59 294.41L305.17 300H293V302H305.17L299.59 307.59L301 309L309 301L301 293Z" fill="white"/>
</svg>
