<svg xmlns="http://www.w3.org/2000/svg" width="619" height="440" fill="none" viewBox="0 0 619 440">
    <path fill="#FFB300" d="M370.391 56.29H179.609v339.452h190.782V56.289z"/>
    <path fill="#FFCB00" d="M200.664 71.328h149.531c2.613 0 4.727 2.114 4.727 4.727v313.242H195.938V76.055c0-2.613 2.114-4.727 4.726-4.727z"/>
    <path fill="#E57C13" d="M357.93 99.258h-4.727v28.359h4.727v-28.36zM357.93 335.156h-4.727v28.36h4.727v-28.36z"/>
    <path fill="#FFBC00" d="M213.984 229.883h-12.89v42.969h12.89v-42.969z"/>
    <path fill="#E57C13" d="M232.891 238.477h-28.789v6.015h28.789v-6.015zM208.398 255.664h-1.718v7.305h1.718v-7.305z"/>
    <path fill="#E57C13" d="M207.539 258.242c.949 0 1.719-.866 1.719-1.933 0-1.068-.77-1.934-1.719-1.934-.949 0-1.719.866-1.719 1.934 0 1.067.77 1.933 1.719 1.933z"/>
    <path fill="#FFFFFE" fill-opacity=".6" d="M325 168H224v20h101v-20z"/>
    <path fill="#FFFFFE" d="M325 200H224v20h101v-20z"/>
    <path fill="#FFFFFE" fill-opacity=".6" d="M299.922 235.039H247.93v14.609h51.992v-14.609zM325 136H224v20h101v-20zM274.355 124.18c11.747 0 21.27-9.523 21.27-21.27s-9.523-21.27-21.27-21.27c-11.746 0-21.269 9.523-21.269 21.27s9.523 21.27 21.269 21.27z"/>
    <path fill="#757BD9" d="M524.809 279.68v16.191h14.266v13.896h-2.148V298.02h-14.266v-16.191H508V263h2.148v16.68h14.661zM91.261 208.087v-16.191H77V178h2.148v11.748H93.41v16.19h14.665v18.829h-2.148v-16.68H91.261z"/>
    <path fill="#6DCAD2" d="M460.215 57.754c7.592 0 13.75-6.157 13.75-13.75s-6.158-13.75-13.75-13.75c-7.593 0-13.75 6.157-13.75 13.75s6.157 13.75 13.75 13.75zm0-2.148c-6.407 0-11.602-5.196-11.602-11.602 0-6.407 5.195-11.602 11.602-11.602 6.406 0 11.601 5.195 11.601 11.602s-5.195 11.602-11.601 11.602zM58.066 137.715c4.748 0 8.594-3.846 8.594-8.594 0-4.748-3.846-8.594-8.594-8.594-4.748 0-8.593 3.846-8.593 8.594 0 4.748 3.845 8.594 8.593 8.594zm0-2.149c-3.557 0-6.445-2.887-6.445-6.445 0-3.558 2.888-6.445 6.445-6.445 3.558 0 6.446 2.887 6.446 6.445 0 3.558-2.888 6.445-6.446 6.445z"/>
    <path fill="#FFB400" d="M528.527 154l10.528 21.055H518L528.527 154z"/>
    <path fill="#F29DA3" d="M117 35h-13v13h13V35z"/>
    <path fill="#9FBFF3" d="M163.281 150.391h-22.343v10.312h22.343v-10.312z"/>
    <path fill="#9EBEF5" d="M397.031 88.945h-22.343v10.313h22.343V88.945z"/>
    <path fill="#9FBFF3" d="M175.742 164.141h-22.344v10.312h22.344v-10.312zM175.742 191.641h-22.344v10.312h22.344v-10.312z"/>
    <path fill="#A0C0F1" d="M175.742 305.938h-22.344v10.312h22.344v-10.312z"/>
    <path fill="#9FBFF3" d="M163.281 204.961h-22.343v10.312h22.343v-10.312z"/>
    <path fill="#A0C0F1" d="M146.523 254.375H123.75v10.312h22.773v-10.312zM157.695 342.461h-22.343v10.312h22.343v-10.312z"/>
    <path fill="#A1C1EF" d="M402.187 304.648h-22.773v10.313h22.773v-10.313zM401.758 332.148h-22.774v10.313h22.774v-10.313z"/>
    <path fill="#9FBFF3" d="M168.438 204.961h11.171v10.312h-11.171c-1.186 0-2.149-.962-2.149-2.148v-6.016c0-1.186.963-2.148 2.149-2.148z"/>
    <path fill="#A0C0F1" d="M168.438 319.258h11.171v10.312h-11.171c-1.186 0-2.149-.962-2.149-2.148v-6.016c0-1.186.963-2.148 2.149-2.148z"/>
    <path fill="#A1C1EF" d="M386.719 291.758h-16.328v10.312h16.328c1.186 0 2.148-.962 2.148-2.148v-6.016c0-1.186-.962-2.148-2.148-2.148zM375.117 304.648h-4.726v10.313h4.726c1.186 0 2.149-.963 2.149-2.149v-6.015c0-1.186-.963-2.149-2.149-2.149zM387.578 319.258h-17.187v10.312h17.187c1.186 0 2.149-.962 2.149-2.148v-6.016c0-1.186-.963-2.148-2.149-2.148z"/>
    <path fill="#9FBFF3" d="M168.438 177.891h11.171v10.312h-11.171c-1.186 0-2.149-.962-2.149-2.148v-6.016c0-1.186.963-2.148 2.149-2.148z"/>
    <path fill="#9EBEF5" d="M381.562 103.125h-11.171v10.313h11.171c1.186 0 2.149-.963 2.149-2.149v-6.016c0-1.186-.963-2.148-2.149-2.148z"/>
    <path fill="#A0C0F1" d="M168.438 292.187h11.171V302.5h-11.171c-1.186 0-2.149-.963-2.149-2.148v-6.016c0-1.186.963-2.149 2.149-2.149z"/>
    <path fill="#9FBFF3" d="M168.438 150.391h11.171v10.312h-11.171c-1.186 0-2.149-.962-2.149-2.148v-6.016c0-1.186.963-2.148 2.149-2.148z"/>
    <path fill="#9EBEF5" d="M381.562 75.195h-11.171v10.313h11.171c1.186 0 2.149-.963 2.149-2.149v-6.015c0-1.186-.963-2.149-2.149-2.149z"/>
    <path fill="#9C88FA" d="M372.969 183.231c-.863-4.206 1.117-9.711 5.939-16.513l1.366 7.163c-1.083 2.888-2.028 4.864-2.84 5.921-.808 1.062-2.299 2.2-4.465 3.429z"/>
    <path fill="#CD002B" d="M372.969 183.231c1.917-1.521 3.305-3.48 4.168-5.873.864-2.394 1.474-6.042 1.839-10.94 10.455 4.636 18.309 7.575 23.556 8.808 5.251 1.233 11.894 2.355 19.933 3.356l8.082 20.062c-14.669-2.024-25.454-3.957-32.355-5.805-6.901-1.847-15.305-5.049-25.223-9.608z"/>
    <path fill="#04B7CA" d="M438.681 126.916L320.889 184.37l13.478 27.633 117.792-57.454-13.478-27.633z"/>
    <path fill="#C42127" d="M474.827 118.108l6.527 13.38c1.92 3.936.283 8.68-3.648 10.601l-12.341 6.02-13.479-27.634 12.34-6.019c3.936-1.917 8.68-.284 10.601 3.652z"/>
    <path fill="#fff" d="M451.889 120.472l-14.599 7.121 13.479 27.633 14.598-7.121-13.478-27.633z"/>
    <path fill="#F6C8B2" d="M299.119 212.24l21.875-27.784 13.355 27.375-35.23.409z"/>
    <path fill="#010101" d="M309.56 199.22l6.132 12.753-16.573.267 10.441-13.02zM392.89 134.608c-2.763-6.815-.684-10.437 6.239-10.875 10.381-.654 14.222-3.575 20.036 3.66 1.727 2.153 11.382 8.942 16.07 15.422 9.29 12.839 7.301 16.848 10.287 21.196 2.986 4.349 11.61 8.22 14.055 9.252 5.784 2.432 7.709 2.432 10.609 6.466 4.306 5.995-2.978 28.609-28.639 16.054l-32.428-52.272-16.229-8.903z"/>
    <path fill="#F5B7B3" d="M421.975 161.249l-4.361-18.937c.331-2.354.705-5.027 1.126-8.013.627-4.478-3.541-15.602-16.397-11.138-7.58 2.634-10.897 8.581-9.17 16.573.228 1.044 3.429 11.808 14.369 6.781l.528 21.505 13.905-6.771z"/>
    <path fill="#DD9995" d="M407.546 146.519c2.948-1.354 4.581-3.068 4.907-5.152-.649 5.302-2.208 9.81-4.679 13.522l-.228-8.37z"/>
    <path fill="#CF0024" d="M477.74 235.43c-14.304 18.897-37.641 21.403-70.013 7.511 16.5-7.945 28.909-12.655 37.219-14.128 5.908-1.049 14.833-.129 26.77 2.767l6.024 3.85z"/>
    <path fill="#003EBD" d="M411.233 216.081l-9.475 80.833 12.891 87.716h16.148l-3.747-80.841 33.215-82.281-49.032-5.427z"/>
    <path fill="#2163E9" d="M460.265 221.508l11.451 87.471 25.996 75.097-15.98.554-36.262-75.651-22.657-76.832 37.452-10.639z"/>
    <path fill="#CF0024" d="M357.93 219.286c-.46-9.44 2.441-16.981 8.693-22.627l3.403 8.525-4.645 10.901-7.451 3.201z"/>
    <path fill="#F4B7B4" d="M364.646 197.729c-7.42-2.518-13.221-2.569-17.402-.155-.12 1.044.623 1.646 2.234 1.805 1.612.163 3.721.494 6.325.993-7.536 4.314-12.104 6.905-13.702 7.768-1.315.709.485 1.474 5.315.946.692-.078 7.597-1.113 20.711-3.107.189-2.441.051-4.125-.413-5.053-.468-.928-1.491-1.994-3.068-3.197z"/>
    <path fill="#C42127" d="M419.131 148.972c-2.273 3.562-4.387 6.033-6.343 7.412-1.955 1.375-3.618 1.56-4.984.55-5.569 9.179-7.966 17.936-7.201 26.272.769 8.336 1.151 13.44 1.151 15.309l-35.135-1.856c-.224 6.334-.843 10.678-1.857 13.028-1.018 2.355-3.295 5.552-6.832 9.599 11.722 1.676 20.054 2.415 24.999 2.226 8.745-.339 17.523.636 22.379 0 1.581 10.326 2.376 17.291 2.376 20.887 0 2.703 7.936 5.509 19.34 0 11.387-5.5 32.252-19.202 50.716-6.965-14.936-15.851-24.196-26.984-27.779-33.395-8.323-14.889-11.838-26.692-13.682-30.865-2.006-4.546-7.721-11.945-17.148-22.202z"/>
    <path fill="#F0F1EF" d="M405.338 221.938c17.681-1.337 25.115-12.298 22.21-32.674l-.851.12c2.841 19.908-4.271 30.401-21.424 31.694l.065.86z"/>
    <path fill="#151E5C" stroke="#151E5C" d="M414.649 384.63l-18.928 7.593-1.469 3.519h40.768l-4.223-11.112h-16.148z"/>
    <path fill="#141B5E" d="M481.732 384.63l15.98-.554 4.017 11.666h-39.995l1.027-4 18.971-7.112z"/>
    <path stroke="#0A0F43" d="M395.966 138.806c.791.378 1.56.554 2.299.524.739-.03 1.353-.262 1.835-.7"/>
    <path fill="#010101" d="M395.515 127.101c6.028 6.222 11.481 8.358 16.362 6.398-.094-.528-.12-.893-.077-1.091.168-.756.585-1.117.653-1.16 2.707-1.508 4.177 1.151 3.494 4.774l3.184 12.95c3.794-13.298 2.449-21.841-4.039-25.618-6.484-3.772-13.011-2.526-19.577 3.747z"/>
    <path fill="#51A500" d="M157.51 303.181c3.9-7.333 4.088-14.858.422-16.808-3.667-1.95-9.8 2.414-13.7 9.747-3.9 7.334-4.088 14.859-.422 16.809 3.667 1.95 9.8-2.415 13.7-9.748z"/>
    <path fill="#3F3643" d="M151.426 297.662c-7.73 12.482-12.298 26.279-13.707 41.379l.43.038c1.405-15.039 5.951-28.767 13.647-41.194l-.37-.223z"/>
    <path fill="#51A500" d="M144.948 280.918c1.156-8.225-1.241-15.362-5.353-15.94-4.113-.578-8.384 5.621-9.54 13.847-1.157 8.225 1.24 15.361 5.353 15.939 4.112.579 8.384-5.621 9.54-13.846z"/>
    <path fill="#3F3643" d="M136.916 279.121c-1.13 11.365-1.68 20.728-1.642 28.093.035 7.365.679 18.403 1.934 33.124l.429-.034c-1.25-14.708-1.894-25.743-1.929-33.09-.034-7.348.512-16.698 1.642-28.046l-.434-.047z"/>
    <path fill="#51A500" d="M119.055 282.869c3.359-2.441 2.125-9.867-2.757-16.586-4.882-6.72-11.563-10.188-14.923-7.747-3.36 2.441-2.126 9.867 2.757 16.587 4.882 6.719 11.563 10.187 14.923 7.746z"/>
    <path fill="#3F3643" d="M108.191 268.89c14.098 15.447 23.354 39.269 27.766 71.461l.426-.06c-4.422-32.274-13.712-56.169-27.878-71.693l-.314.292z"/>
    <path fill="#51A500" d="M123.923 316.722c2.885-2.987.381-10.087-5.594-15.857-5.974-5.77-13.156-8.026-16.041-5.039-2.885 2.988-.381 10.087 5.594 15.857 5.974 5.77 13.156 8.026 16.041 5.039z"/>
    <path fill="#3F3643" d="M111.792 304.696c12.01 10.368 19.791 22.3 23.358 35.801l.416-.111c-3.588-13.587-11.421-25.597-23.495-36.017l-.279.327z"/>
    <path fill="#16205A" d="M129.869 337.189h12.104c1.8 5.598 3.257 9.754 4.37 12.469 1.671 4.074 2.913 6.05 4.202 9.041 1.289 2.99 3.635 8.783 3.635 16.771 0 5.323-.262 11.872-.782 19.645h-34.959c-.524-7.773-.782-14.322-.782-19.645 0-7.984 2.346-13.781 3.635-16.771 1.289-2.991 2.531-4.967 4.203-9.041 1.117-2.715 2.573-6.871 4.374-12.469z"/>
    <path fill="#A2A7F7" d="M139.76 344.635l.043.009c2.166.142 3.584-.348 4.215-1.508l-.378-.207c-.533.98-1.787 1.418-3.79 1.289-2.273-.623-4.138-.502-5.586.383l-.034.03c-2.17 2.067-1.624 4.585 1.547 7.455 1.981 1.719 3.162 3.914 3.545 6.604-.163 3.339.949 5.848 3.339 7.46 3.364 1.521 5.061 3.798 5.164 6.87.477 6.269 2.574 9.866 6.308 10.738l.099-.417c-3.515-.825-5.517-4.254-5.977-10.342-.107-3.236-1.912-5.655-5.384-7.223-2.226-1.504-3.274-3.867-3.119-7.103-.404-2.832-1.633-5.122-3.691-6.905-2.995-2.711-3.485-4.95-1.552-6.806 1.341-.817 3.09-.924 5.251-.327z"/>
    <path fill="#A2A7F7" d="M138.286 349.018c5.801 4.477 10.059 8.267 12.771 11.361l.322-.284c-2.733-3.119-7.008-6.922-12.831-11.417l-.262.34zM127.505 357.281c-1.637.829-2.874 2.823-3.699 5.951-1.147 2.518-2.888 3.824-5.225 3.914l.017.43c2.514-.099 4.391-1.508 5.612-4.198.808-3.059 1.985-4.954 3.523-5.732 2.746-2.019 3.223-3.987 1.371-5.805l-.034-.026c-1.453-.924-2.97-.997-4.521-.206l.194.382c1.409-.713 2.758-.657 4.077.177 1.612 1.594 1.199 3.257-1.315 5.113z"/>
    <path fill="#A2A7F7" d="M126.951 353.908c-2.29 1.323-4.052 2.535-5.294 3.626l.284.323c1.216-1.07 2.961-2.265 5.225-3.575l-.215-.374zM136.134 395.098c-.134-2.071.313-3.769 1.344-5.105 3.03-3.382 3.404-7.386 1.113-11.963-1.645-2.5-1.71-5.328-.189-8.529 1.534-4.176.684-7.008-2.556-8.413-3.352-.817-5.548.584-6.549 4.116-.829 2.003-1.955 3.554-3.373 4.624-2.097 1.723-3.321 3.179-3.674 4.4-.459 1.59-.528 2.543-.451 5.122.043 1.349-1.263 3.149-3.936 5.366l.275.331c2.767-2.299 4.138-4.189 4.091-5.71-.077-2.535-.013-3.451.434-4.989.322-1.117 1.499-2.518 3.528-4.181 1.478-1.117 2.651-2.728 3.514-4.821.946-3.343 2.922-4.598 6.007-3.85 2.97 1.293 3.752 3.876 2.295 7.838-1.573 3.312-1.508 6.299.215 8.911 2.2 4.4 1.847 8.22-1.07 11.473-1.104 1.435-1.581 3.236-1.444 5.405l.426-.025z"/>
    <path fill="#A2A7F7" d="M133.925 366.859c-3.67 13.84-6.441 23.233-8.314 28.174l.399.151c1.882-4.959 4.658-14.365 8.332-28.218l-.417-.107z"/>
    <path fill="#151E5C" d="M78.203 397.246h462.344v-2.148H78.203v2.148z"/>
</svg>
