<svg width="64" height="64" viewBox="0 0 64 64" fill="none" xmlns="http://www.w3.org/2000/svg">
<path d="M32 64C23.4525 64 15.4166 60.6714 9.3725 54.6275C3.32863 48.5834 0 40.5475 0 32C0 23.4525 3.32863 15.4166 9.3725 9.3725C15.4166 3.32863 23.4525 0 32 0C40.5475 0 48.5834 3.32863 54.6275 9.3725C60.6714 15.4166 64 23.4525 64 32C64 40.5475 60.6714 48.5834 54.6275 54.6275C48.5834 60.6714 40.5475 64 32 64Z" fill="#C42127"/>
<path d="M54.6275 9.3725C48.5834 3.32863 40.5475 0 32 0V64C40.5475 64 48.5834 60.6714 54.6275 54.6275C60.6714 48.5834 64 40.5475 64 32C64 23.4525 60.6714 15.4166 54.6275 9.3725Z" fill="#9F0006"/>
<path d="M32 23.125C28.2091 23.125 25.125 20.0409 25.125 16.25C25.125 12.4591 28.2091 9.375 32 9.375C35.7909 9.375 38.875 12.4591 38.875 16.25C38.875 20.0409 35.7909 23.125 32 23.125ZM37.625 49.375V26.875H23.875V30.625H27.625V49.375H23.875V53.125H41.375V49.375H37.625Z" fill="white"/>
<path d="M32 23.125C35.7909 23.125 38.875 20.0409 38.875 16.25C38.875 12.4591 35.7909 9.375 32 9.375V23.125Z" fill="#CCEFFF"/>
<path d="M37.625 49.375V26.875H32V53.125H41.375V49.375H37.625Z" fill="#CCEFFF"/>
</svg>
