<svg width="64" height="64" viewBox="0 0 64 64" fill="none" xmlns="http://www.w3.org/2000/svg">
<path d="M13.8142 36.9781L32.2848 48.2653L50.7553 36.9781L63.0695 29.4539V57.159C63.0695 60.9373 60.0068 64 56.23 64H8.34106C4.56275 64 1.5 60.9357 1.5 57.159V29.4524L13.8142 36.9781Z" fill="#2BACE2"/>
<path d="M63.0095 27.2409V29.4817L50.6953 37.0059V18.0434L51.4772 18.4058L61.5352 24.613C62.4513 25.1744 63.0095 26.1691 63.0095 27.2409Z" fill="#00377B"/>
<path d="M50.754 18.0141V36.9766L32.2835 48.2637L13.8145 36.9781V4.88251C13.8145 2.1868 15.9982 0 18.6954 0H37.3156L37.5638 0.0246747V8.31229C37.5623 11.008 39.7476 13.1948 42.4448 13.1948H49.4L50.7556 14.7061V18.0141H50.754ZM43.0478 24.303C43.0478 18.3518 38.2239 13.5279 32.2727 13.5279C26.323 13.5279 21.4975 18.3518 21.4975 24.303C21.4975 30.2543 26.3214 35.0782 32.2727 35.0782C38.2239 35.0782 43.0478 30.2543 43.0478 24.303Z" fill="#F7F7F7"/>
<path d="M37.5877 0.0277807L49.3977 13.1933H42.4425C39.7468 13.1933 37.5615 11.0065 37.5615 8.31077V0.0246964L37.5877 0.0277807Z" fill="#E9E9E9"/>
<path d="M43.0473 24.303C43.0473 30.2543 38.2234 35.0782 32.2722 35.0782C26.3225 35.0782 21.4971 30.2543 21.4971 24.303C21.4971 18.3518 26.321 13.5279 32.2722 13.5279C38.2234 13.5294 43.0473 18.3533 43.0473 24.303Z" fill="#46AB00"/>
<path d="M13.8142 18.0141V36.9766L1.5 29.4524V27.2116C1.5 26.1398 2.05827 25.1451 2.97277 24.5853L13.8142 18.0141Z" fill="#00377B"/>
<path d="M30.6839 27.6495C30.3677 27.6495 30.0685 27.5123 29.8634 27.2717L27.4684 24.4665C27.214 24.175 27.1369 23.7679 27.2649 23.4024C27.3929 23.0369 27.7075 22.7685 28.0884 22.6991C28.4693 22.6298 28.8579 22.7701 29.1062 23.0677L30.818 25.0725L35.5787 21.1986C35.8764 20.9534 36.2835 20.8856 36.6459 21.0228C37.0068 21.1601 37.2674 21.4793 37.3291 21.8617C37.3892 22.2442 37.2412 22.6282 36.9404 22.8703L31.364 27.4074C31.1712 27.5662 30.9306 27.6511 30.6839 27.6495Z" fill="white"/>
</svg>
