<svg xmlns="http://www.w3.org/2000/svg" width="198" height="48" fill="none" viewBox="0 0 198 48">
    <path fill="#C42127" d="M158.657 22.778c-.604-6.592-4.931-8.696-6.071-9.416-.902 1.82-1.589 3.76-1.992 5.81 0 .779-1.677 6.166 1.266 13.353 3.51 8.65 12.026 14.761 21.992 14.761 4.403 0 8.512-1.213 12.047-3.288 1.027-7.914-5.024-12.452-9.246-15.886-4.402-3.573-4-8.739-3.602-10.483.047-.21.109-.402.185-.586-2.541.34-3.124-1.978-3.124-1.978s3.241.924 5.019-.126c.906-.46 1.64-1.271 1.64-2.643-.177-1.778-1.594-2.498-2.772-2.61-5.522-.532-7.564 3.898-7.564 3.898-3.103 6.634 4.122 12.963 6.256 16.368.444.715.91 1.728 1.14 2.46 1.589 6.592-3.316 11.034-8.369 11.06-6-.101-8.436-4.87-8.738-8.149-.507-5.066 2.122-8.914 1.933-12.545zm32.541-14.975c.013-.012.017-.025.026-.037-4.332-4.644-10.5-7.568-17.376-7.568-6.964 0-13.367 3.054-17.707 7.802 7.409 6.768 5.627 13.85 4.793 16.945-1.422 4.91-2.088 7.036-2.088 9.721-.101 6.166 5.09 6.22 5.367 6.183 3.706-.038 5.652-3.296 5.35-6.032-.201-1.862-.474-4.074-2.818-8.458-3.685-7.43-3.702-10.512-3.103-12.942-2.738-1.435-3.337-4.263-2.561-6.522 1.798 2.556 5.522 3.493 8.557 2.042.394-.188 1.149-.578 1.74-.778 4.143-1.134 6.852.903 8.089 2.606 3.551 1.17 5.325 4.404 5.736 6.96-1.787-2.38-4.998-2.497-6.638-1.577-1.891 1.017-2.721 2.707-2.864 3.74-.998 4.563 4.164 7.073 10.244 11.992 3.689 3.08 4.897 6.103 5.3 7.814 1.094-1.18 1.987-2.347 2.826-3.727-3.879-4.216-6.244-9.834-6.244-16.004 0-2.46.378-4.827 1.074-7.06.893-3.247 2.247-5.066 2.247-5.066l.05-.034zm5.929 11.503c-.402-2.07-1.081-4.04-1.987-5.88 0 0-.088-.185-.239-.482-2.176 3.254-3.443 7.136-3.443 11.31 0 2.214.361 4.343 1.015 6.346.365.988.797 2.017 1.313 3.092.247.48.519.95.805 1.405.503-.912.964-1.857 1.345-2.836 2.499-7.546 1.38-11.733 1.191-12.955zM58.135 14.764c0-3.966 2.327-7.651 6.697-7.651 2.826 0 4.394 1.125 5.098 3.89l.453-.226c.13-1.104.218-1.41.394-3.007-.73-.134-2.658-1.59-5.241-1.59-5.833 0-10.067 3.597-10.067 9.107 0 4.149 2.847 8.637 9.363 8.637 1.882 0 4.15-.598 4.884-.757.47-.887.931-2.522 1.418-3.94l-.76-.264c-1.308 2.585-2.72 4.02-5.387 4.02-3.971 0-6.852-3.342-6.852-8.22zm28.496 8.562c0-.175-.16-.305-.39-.305-.147 0-.432-.013-.717-.1-.332-.105-.839-.264-1.547-1.941-.613-1.46-1.736-4.221-2.726-6.66-.918-2.254-1.71-4.208-1.883-4.589-.037-.083-.075-.158-.104-.23-.13-.297-.235-.53-.491-.53-.239 0-.352.196-.6.819l-4.52 11.587c-.381.966-.738 1.51-1.496 1.602-.147.02-.424.042-.545.042-.177 0-.328.142-.328.305 0 .2.176.305.524.305.525 0 1.133-.029 1.535-.046.197-.008.348-.016.407-.016.088 0 .31.008.579.025.39.017.872.042 1.148.042.394 0 .436-.214.436-.306 0-.07-.025-.305-.348-.305h-.176c-.188 0-.503-.042-.503-.347 0-.297.1-.732.277-1.188l1.065-2.895v.004l.608-1.648 1.602-4.55c.008-.022.016-.038.02-.051.009.013.017.03.026.05l1.87 5.003h-2.172c-.902.034-1.325.778-1.463 1.063.008-.017 0 0 .008 0h4.038c.004.004.004.008.008.012l1.728 4.254c.029.08.037.147.016.197-.025.054-.071.092-.121.113l-.038.016c-.067.03-.176.08-.176.251 0 .239.285.256.683.276l.139.005c.86.029 1.941.046 3.04.046.511-.009.587-.197.587-.31zm12.264-10.775c0-1.075-.625-1.958-1.166-2.389-.39-.3-1.425-1.104-4.306-1.104-.595 0-1.413.017-2.084.03-.457.008-.847.016-1.04.016-.05 0-.2 0-.423-.008-.533-.017-1.417-.038-2.126-.038-.13 0-.524 0-.524.31 0 .15.176.313.348.313.189 0 .558.025.725.042.596.075.705.28.75.908.051.594.051 1.125.051 4.062v3.338c0 1.844 0 3.304-.121 4.07l-.013.054c-.096.54-.147.761-.436.824-.184.038-.449.08-.637.08-.222 0-.348.158-.348.313 0 .113.067.31.524.31.511 0 1.45-.038 1.903-.059.147-.004.248-.012.269-.012.025 0 .109.004.247.012.47.017 1.568.059 2.503.059.483 0 .524-.239.524-.31 0-.15-.121-.314-.348-.314-.184 0-.868-.041-1.17-.087-.528-.067-.65-.285-.729-.866-.1-.77-.1-2.23-.1-4.079V10.33c0-.164.037-.205.037-.205.23-.042 1.06-.13 1.409-.13l.134-.004c.063 0 .13-.004.206-.004.658 0 1.63.092 2.511.87 1.195 1.045 1.195 2.338 1.195 2.76 0 1.649-1.916 2.895-4.138 2.895-.319 0-.75 0-.75.351 0 .189.23.33.364.33.1.018.302.026.658.026 3.51 0 6.101-1.874 6.101-4.668zm6.734 10.775c0-.146-.105-.305-.302-.305-.155 0-.558-.038-.847-.084-.444-.067-.507-.272-.574-.845-.089-.757-.089-2.183-.089-3.99v-3.267c0-2.878 0-3.397.021-3.974.042-.644.147-.8.558-.887.201-.038.323-.038.453-.038.147 0 .302-.159.302-.305 0-.305-.344-.305-.457-.305-.428 0-1.208.025-1.623.033l-.298.009-.331-.009c-.432-.012-1.161-.033-1.61-.033-.113 0-.457 0-.457.305 0 .142.13.305.302.305.126 0 .352.021.558.063.285.059.448.213.494.866.042.582.042 1.1.042 3.974v3.267c0 2.137-.029 3.33-.104 3.986-.072.59-.143.8-.39.854-.164.037-.39.079-.554.079-.197 0-.306.159-.306.305 0 .113.063.306.457.306.415 0 1.128-.03 1.556-.05.18-.013.314-.017.343-.017l.21.008c.407.017 1.359.059 2.197.059.419-.009.449-.239.449-.31zm13.799-12.281c.021-.506.042-1.134.042-1.485 0-.113 0-.372-.235-.372-.067 0-.151.016-.273.037-.083.017-.18.034-.297.05-.407.06-.847.084-1.359.084h-7.245c-.21 0-.944-.02-1.489-.088-.306-.037-.494-.104-.624-.154-.093-.034-.172-.063-.244-.063-.167 0-.243.196-.327.41l-.021.07c-.004.047-.063.302-.125.57-.168.744-.294 1.326-.294 1.455 0 .189.147.306.281.306.176 0 .285-.088.331-.255.021-.038.038-.08.051-.122.041-.1.092-.226.243-.451.243-.377.671-.498 1.819-.52l2.621-.041v7.626c0 1.807 0 3.233-.088 3.986-.071.598-.18.816-.453.874-.218.055-.402.084-.532.084-.202 0-.302.138-.302.28 0 .305.344.305.453.305.41 0 1.232-.033 1.673-.05.171-.008.293-.012.318-.012l.256.008c.432.017 1.333.054 2.126.054.428 0 .457-.23.457-.305 0-.184-.122-.305-.302-.305-.168 0-.595-.042-.855-.084-.474-.067-.545-.297-.617-.845-.084-.757-.084-2.183-.084-3.99v-7.63l2.244.042c1.819.046 2.117.456 2.172.895l.021.188c.016.163.037.464.301.464.16 0 .327-.138.327-.389.009-.083.021-.326.03-.627zm14.243 12.281c0-.175-.167-.305-.394-.305-.147 0-.428-.013-.717-.1-.331-.105-.834-.264-1.539-1.941-.612-1.46-1.74-4.221-2.733-6.66-.919-2.254-1.707-4.208-1.879-4.589-.042-.083-.071-.158-.105-.23-.134-.297-.235-.53-.495-.53-.239 0-.352.196-.599.819l-4.52 11.587c-.386.966-.734 1.51-1.501 1.602-.147.02-.424.042-.545.042-.176 0-.323.142-.323.305 0 .2.176.305.52.305.532 0 1.136-.029 1.534-.046.197-.008.344-.016.411-.016.084 0 .315.008.579.025.386.017.868.042 1.145.042.394 0 .436-.214.436-.306 0-.07-.025-.305-.348-.305h-.176c-.189 0-.508-.042-.508-.347 0-.297.105-.732.277-1.188l1.065-2.895v.004l.604-1.648 1.601-4.55c.009-.022.017-.038.026-.051.004.013.008.03.021.05l1.874 5.003h-2.176c-.893.034-1.321.778-1.464 1.063.009-.017 0 0 .009 0H127.789c0 .004.004.008.012.012l1.723 4.254c.038.08.042.147.021.197-.021.054-.071.092-.125.113l-.038.016c-.067.03-.176.08-.176.251 0 .239.285.256.683.276l.143.005c.864.029 1.941.046 3.04.046.52-.009.599-.197.599-.31zm10.327-2.154c0-.36-.155-.435-.285-.435-.172 0-.306.142-.343.368-.068.38-.223.736-.428.975-.403.477-1.162.514-2.197.514-1.422 0-2.176-.121-2.453-.393-.323-.301-.344-1.732-.344-4.05V14.84c0-2.878 0-3.397.021-3.974.042-.66.151-.824.583-.908.214-.02.495-.046.62-.046.139 0 .302-.121.302-.28 0-.113-.058-.305-.453-.305-.431 0-1.312.025-1.786.033l-.331.009c-.034 0-.13-.005-.281-.009-.436-.012-1.254-.037-1.904-.037-.113 0-.457 0-.457.305 0 .146.156.305.307.305.167 0 .486.021.633.042.515.071.608.272.65.887.046.581.046 1.1.046 3.974v3.267c0 1.807 0 3.233-.109 3.982l-.004.054c-.089.527-.13.749-.382.803-.164.038-.39.08-.558.08-.197 0-.302.159-.302.305 0 .138.08.305.457.305.307 0 .726-.02 1.12-.046.637-.037 1.321-.016 2.31.009l.558.012c.918.046 1.983.067 3.346.067 1.04 0 1.207-.07 1.367-.61.159-.557.297-1.686.297-1.891z"/>
    <path fill="#00377B" d="M17.711 7.163c0-.2-.176-.305-.524-.305-.436 0-1.032.03-1.384.05-.163.008-.276.017-.318.017-.093 0-.277-.009-.512-.021-.449-.017-1.06-.046-1.63-.046-.24 0-.634 0-.634.326 0 .105.05.285.394.285.23 0 .541 0 .759.07.176.084.201.268.201.365 0 .192-.105.54-.188.782-.445 1.447-3.166 8.546-4.52 11.729l-4.06-10.8-.016-.047c-.306-.782-.566-1.46-.566-1.71 0-.126.034-.222.197-.297.155-.072.512-.097.763-.097.323 0 .373-.192.373-.305 0-.305-.465-.305-.742-.305-.553 0-1.178.029-1.589.046-.21.012-.369.016-.444.016-.088 0-.281-.008-.541-.016-.524-.017-1.313-.046-2.013-.046-.302 0-.717 0-.717.305 0 .184.126.305.327.305.122 0 .482 0 .788.08.692.196.998.385 1.472 1.59l5.35 13.351.055.13c.398 1.012.52 1.318.876 1.318.264 0 .365-.222.692-.954.096-.213.214-.473.36-.786.483-1.025 1.384-3.18 2.638-6.17l.948-2.276c.805-1.932 1.5-3.597 1.681-4.07.574-1.439.889-1.803 1.14-1.974.378-.234.822-.234.965-.234.365-.005.42-.197.42-.306zm5.77 16.163c0-.146-.11-.305-.307-.305-.155 0-.553-.038-.846-.084-.44-.067-.504-.272-.575-.845-.088-.757-.088-2.183-.088-3.994V14.83c0-2.878 0-3.397.021-3.978.046-.64.143-.8.553-.887.202-.038.328-.038.453-.038.147 0 .302-.159.302-.305 0-.306-.344-.306-.457-.306-.427 0-1.203.026-1.622.034l-.298.008-.331-.008c-.437-.013-1.166-.034-1.61-.034-.114 0-.457 0-.457.306 0 .142.13.305.306.305.121 0 .352.021.557.063.285.059.449.213.49.866.047.581.047 1.1.047 3.974v3.267c0 1.422-.013 3.154-.105 3.99-.071.577-.138.799-.39.853-.16.038-.39.08-.553.08-.197 0-.306.159-.306.305 0 .138.08.306.457.306.415 0 1.127-.03 1.56-.05.175-.013.305-.017.339-.017l.21.008c.406.017 1.358.059 2.197.059.42-.005.453-.235.453-.306zm11.564-.242c.113-.406.268-1.682.268-1.828 0-.377-.176-.435-.285-.435-.264 0-.31.255-.348.414-.105.74-.369.987-.78 1.167-.478.188-1.38.188-1.866.188-1.916 0-2.817-.234-2.855-1.338-.017-.264-.013-1.456-.004-2.33.004-.348.004-.645.004-.825v-1.522c.423 0 3.086.025 3.576.084.764.092.822.318.86.468.08.218.08.39.08.556 0 .243.155.327.285.327.197 0 .327-.193.327-.498 0-.121.042-.812.084-1.184.029-.393.084-.652.121-.824.021-.096.034-.163.034-.217 0-.222-.139-.306-.26-.306-.118 0-.201.088-.315.21l-.075.075c-.155.154-.398.175-.81.217h-.037c-.394.042-3.313.046-3.866.046v-5.074-.05c.39.004 3.124.025 3.426.067 1.06.134 1.161.26 1.253.473.08.196.101.476.101.598 0 .351.214.393.302.393.172 0 .285-.155.327-.318.03-.146.054-.519.08-.845.008-.176.02-.326.029-.393.025-.31.075-.506.109-.648.025-.097.046-.168.046-.235 0-.313-.201-.326-.239-.326-.084 0-.16.034-.222.059-.025.012-.05.025-.063.029l-.122.017c-.18.029-.453.07-.738.092-.125.004-.578.008-1.346.008-1.056 0-3.14-.004-3.693-.008h-.252l-.285-.009c-.453-.012-1.296-.037-1.942-.037-.113 0-.457 0-.457.305 0 .146.156.305.306.305.168 0 .483.021.634.042.52.071.612.272.654.887.046.581.046 1.1.046 3.974v3.267c0 1.81 0 3.237-.11 3.986l-.012.067c-.084.552-.138.749-.36.79-.067.009-.147.026-.223.038-.125.025-.251.046-.348.046-.197 0-.302.16-.302.306 0 .138.08.305.458.305.255 0 .62-.013 1.123-.046.382-.017.726-.021.822-.021.273 0 .78 0 1.59.042l.46.012c.76.026 2.42.05 3.598.05.746-.004 1.052-.004 1.212-.593zM49.376 9.56c0-.113 0-.368-.239-.368-.063 0-.147.012-.268.038-.08.016-.18.033-.298.05-.402.058-.847.088-1.354.088h-7.254c-.201 0-.935-.021-1.484-.088-.306-.038-.49-.105-.63-.155-.091-.033-.167-.063-.242-.063-.151 0-.227.163-.323.41l-.025.067c-.009.046-.063.297-.122.565-.168.744-.294 1.326-.294 1.46 0 .2.16.305.281.305.177 0 .286-.088.332-.255l.05-.121c.042-.1.092-.226.243-.452.243-.377.671-.498 1.816-.519l2.62-.042v7.622c0 1.81 0 3.237-.084 3.99-.07.598-.188.816-.452.875-.218.054-.403.083-.533.083-.201 0-.306.138-.306.28 0 .306.344.306.457.306.411 0 1.229-.034 1.669-.05.176-.009.293-.013.319-.013l.251.008c.432.017 1.33.055 2.126.055.423 0 .457-.23.457-.306 0-.184-.122-.305-.306-.305-.168 0-.596-.042-.847-.084-.474-.066-.55-.297-.616-.845-.089-.757-.089-2.183-.089-3.994v-7.63l2.248.042c1.82.046 2.117.456 2.168.895l.02.188c.013.163.038.465.307.465.155 0 .327-.139.327-.39 0-.083.008-.326.025-.627.025-.506.05-1.134.05-1.485zM83.025 34.733c0-2.238 1.316-4.317 3.782-4.317 1.593 0 2.478.636 2.88 2.196l.252-.125c.075-.628.126-.799.226-1.703-.415-.07-1.505-.895-2.96-.895-3.291 0-5.686 2.03-5.686 5.141 0 2.343 1.61 4.878 5.288 4.878 1.065 0 2.344-.34 2.759-.427.264-.502.524-1.427.8-2.225l-.427-.147c-.738 1.46-1.535 2.271-3.044 2.271-2.248-.004-3.87-1.89-3.87-4.647zM115.717 39.506c0-.1-.071-.205-.21-.205-.109 0-.381-.03-.582-.058-.302-.046-.344-.189-.39-.582-.063-.519-.063-1.497-.063-2.74V33.68c0-1.974 0-2.33.017-2.727.029-.443.1-.552.381-.607.138-.029.222-.029.315-.029.1 0 .209-.109.209-.209 0-.21-.239-.21-.318-.21-.294 0-.822.018-1.116.026-.109.004-.188.004-.201.004-.021 0-.105-.004-.231-.004-.297-.008-.796-.025-1.102-.025-.08 0-.311 0-.311.209 0 .1.088.21.21.21.084 0 .243.016.382.041.197.042.306.146.339.594.034.401.034.757.034 2.727v2.242c0 .975-.013 2.163-.072 2.74-.05.393-.1.544-.264.582-.113.029-.272.058-.381.058-.134 0-.214.105-.214.205 0 .096.059.21.319.21.28 0 .775-.026 1.065-.038l.234-.009c.017 0 .063 0 .147.005.277.008.931.037 1.505.037.277.004.298-.155.298-.205zM129.407 39.506c0-.1-.071-.205-.21-.205-.105 0-.381-.03-.583-.058-.301-.046-.343-.189-.389-.582-.063-.519-.063-1.497-.063-2.74V33.68c0-1.974 0-2.33.016-2.727.03-.443.101-.552.382-.607.138-.029.222-.029.314-.029.101 0 .21-.109.21-.209 0-.21-.235-.21-.314-.21-.298 0-.826.018-1.116.026-.113.004-.188.004-.201.004-.025 0-.109-.004-.231-.004-.301-.008-.796-.025-1.107-.025-.079 0-.31 0-.31.209 0 .1.088.21.21.21.084 0 .243.016.386.041.192.042.306.146.339.594.025.401.025.757.025 2.727v2.242c0 .975-.004 2.163-.071 2.74-.046.393-.092.544-.264.582-.109.029-.273.058-.382.058-.134 0-.209.105-.209.205 0 .096.05.21.31.21.285 0 .776-.026 1.065-.038l.239-.009c.008 0 .063 0 .143.005.281.008.93.037 1.505.037.285.004.306-.155.306-.205zM67.712 39.477c-.214-.088-.256-.147-.256-.435 0-.695.059-1.49.076-1.699 0-.196.155-.33.255-.33.122 0 .21.175.21.267 0 .164.046.435.122.661.285.95 1.115 1.205 1.941 1.205 1.145 0 1.837-.72 1.837-1.623 0-.556-.021-1.255-1.2-1.95l-.763-.451c-1.568-.916-2.193-1.623-2.193-2.752 0-1.565 1.506-2.569 3.346-2.569.86 0 1.535.122 1.883.21.121.033.18.075.18.167 0 .167-.046.527-.046 1.53 0 .273-.1.407-.21.407-.092 0-.23-.072-.23-.222 0-.122.075-.51-.21-.845-.197-.239-.616-.598-1.476-.598-.951 0-1.807.497-1.807 1.367 0 .574.172 1.243 1.363 1.908l.54.301c1.75.962 2.332 1.715 2.332 2.87 0 .95-.36 1.715-1.32 2.388-.638.452-1.506.527-2.215.527-.771-.004-1.585-.08-2.16-.334zM138.3 39.477c-.209-.088-.256-.147-.256-.435 0-.695.063-1.49.08-1.699 0-.196.151-.33.256-.33.121 0 .209.175.209.268 0 .163.047.434.122.66.285.95 1.12 1.205 1.946 1.205 1.144 0 1.836-.72 1.836-1.623 0-.556-.021-1.255-1.199-1.95l-.772-.45c-1.559-.917-2.192-1.624-2.192-2.753 0-1.565 1.505-2.569 3.341-2.569.86 0 1.535.122 1.883.21.122.033.18.075.18.167 0 .167-.046.527-.046 1.53 0 .273-.105.407-.21.407-.088 0-.23-.072-.23-.222 0-.122.08-.51-.21-.845-.197-.239-.62-.598-1.48-.598-.948 0-1.807.498-1.807 1.367 0 .574.168 1.243 1.358 1.908l.541.301c1.749.962 2.332 1.715 2.332 2.87 0 .95-.361 1.715-1.33 2.388-.629.452-1.505.527-2.213.527-.747-.004-1.564-.08-2.139-.334zM124.879 30.178c0-.071 0-.247-.16-.247-.042 0-.1.008-.18.025-.059.013-.122.025-.201.034-.273.037-.575.058-.918.058h-4.898c-.142 0-.633-.017-1.01-.058-.21-.026-.332-.072-.424-.105-.063-.025-.113-.046-.168-.046-.1 0-.15.109-.218.276l-.016.046c-.005.03-.042.205-.084.38-.109.503-.197.896-.197.988 0 .134.109.209.193.209.117 0 .192-.063.222-.176.008-.025.021-.05.038-.08.025-.07.062-.154.163-.305.172-.255.457-.338 1.233-.35l1.769-.03v5.158c0 1.22 0 2.187-.058 2.698-.047.401-.126.552-.307.593-.146.038-.272.055-.36.055-.134 0-.21.096-.21.192 0 .21.235.21.315.21.276 0 .826-.022 1.128-.038l.213-.009c.017 0 .08.005.172.005.294.012.902.041 1.439.041.285 0 .31-.158.31-.209 0-.125-.084-.205-.21-.205-.113 0-.402-.029-.574-.058-.323-.046-.373-.201-.415-.57-.063-.514-.063-1.48-.063-2.701V30.8l1.526.03c1.229.033 1.43.305 1.463.598l.017.13c.008.112.025.317.201.317.109 0 .223-.092.223-.264 0-.058.004-.221.016-.426.013-.343.03-.766.03-1.008zM80.991 39.28c.08-.276.18-1.138.18-1.238 0-.255-.121-.293-.193-.293-.176 0-.213.171-.234.28-.072.502-.252.67-.525.79-.322.13-.934.13-1.266.13-1.3 0-1.912-.163-1.937-.911-.008-.176-.004-.987-.004-1.577 0-.235.004-.435.004-.557v-1.037c.285.004 2.092.017 2.428.059.516.062.557.217.583.317.05.147.05.264.05.381 0 .159.105.218.193.218.134 0 .218-.13.218-.34 0-.079.03-.551.059-.802.016-.264.054-.44.08-.553.016-.066.024-.112.024-.146 0-.15-.096-.205-.176-.205-.08 0-.134.059-.214.138l-.05.05c-.1.105-.272.122-.545.147l-.025.004c-.269.025-2.24.03-2.62.03V30.721v-.03c.263.005 2.117.017 2.322.046.717.092.788.176.847.318.055.134.067.322.067.406 0 .238.147.268.21.268.113 0 .189-.105.218-.218.02-.1.038-.351.05-.573l.021-.263c.021-.214.05-.348.08-.444.017-.067.025-.113.025-.159 0-.209-.134-.221-.16-.221-.058 0-.108.02-.146.041-.017.009-.034.017-.046.017l-.08.013c-.121.016-.306.05-.499.058-.088.004-.394.004-.914.004-.717 0-2.126-.004-2.503-.004h-.172c-.017 0-.088-.004-.193-.004-.306-.008-.876-.025-1.316-.025-.076 0-.31 0-.31.205 0 .1.104.205.205.205.113 0 .331.017.432.03.348.045.415.183.444.597.03.393.03.75.03 2.694v2.213c0 1.23 0 2.192-.072 2.702l-.008.046c-.059.373-.093.51-.243.536-.047.004-.097.016-.151.025-.084.016-.168.029-.235.029-.134 0-.206.105-.206.21 0 .091.055.204.31.204.173 0 .424-.012.76-.03.26-.012.49-.012.557-.012.189 0 .533 0 1.078.03l.31.008c.516.017 1.64.033 2.44.033.504.005.709.005.818-.397zM136.736 39.28c.08-.276.18-1.138.18-1.238 0-.255-.121-.293-.192-.293-.177 0-.214.171-.235.28-.071.502-.252.67-.524.79-.323.13-.935.13-1.267.13-1.295 0-1.912-.163-1.937-.911-.008-.176-.004-.987 0-1.577V34.867c.285.004 2.093.017 2.428.059.516.062.558.217.583.317.05.147.05.264.05.381 0 .159.105.218.193.218.134 0 .218-.13.218-.34 0-.079.029-.551.063-.802.017-.264.059-.44.08-.553.016-.066.025-.112.025-.146 0-.15-.101-.205-.176-.205-.08 0-.135.059-.214.138l-.051.05c-.104.105-.272.122-.545.147l-.025.004c-.272.025-2.243.03-2.625.03V30.721v-.03c.265.005 2.118.017 2.323.046.717.092.784.176.847.318.059.134.067.322.067.406 0 .238.147.268.21.268.113 0 .193-.105.218-.218.021-.1.038-.351.05-.573l.021-.263c.021-.214.051-.348.08-.444.017-.067.025-.113.025-.159 0-.209-.13-.221-.159-.221-.059 0-.105.02-.147.041-.021.009-.038.017-.046.017l-.08.013c-.125.016-.306.05-.499.058-.088.004-.394.004-.914.004-.717 0-2.13-.004-2.503-.004h-.168c-.021 0-.092-.004-.197-.004-.306-.008-.876-.025-1.316-.025-.072 0-.306 0-.306.205 0 .1.104.205.205.205.113 0 .331.017.432.03.348.045.415.183.44.597.034.393.034.75.034 2.694v2.213c0 1.23 0 2.192-.072 2.702l-.004.046c-.063.373-.092.51-.243.536-.046.004-.101.016-.151.025-.084.016-.172.029-.239.029-.13 0-.201.105-.201.21 0 .091.05.204.306.204.172 0 .419-.012.759-.03.26-.012.495-.012.562-.012.18 0 .524 0 1.073.03l.315.008c.515.017 1.639.033 2.44.033.491.005.7.005.809-.397zM102.195 33.637c0-1.97 0-2.334-.017-2.744-.029-.443-.151-.577-.579-.698-.109-.034-.339-.05-.536-.05-.143 0-.231-.046-.231-.138 0-.093.105-.122.302-.122.709 0 1.56.03 1.836.03.458 0 1.682-.03 2.093-.03.855 0 1.832.075 2.549.548.386.26.948.912.948 1.782 0 .962-.545 1.811-1.862 2.865 1.191 1.465 2.138 2.636 2.952 3.443.746.749 1.216.812 1.438.853.134.03.214.03.319.03.109 0 .172.075.172.138 0 .104-.093.134-.26.134h-1.288c-.75 0-1.115-.076-1.467-.256-.579-.288-1.082-.899-1.832-1.907-.537-.699-1.099-1.569-1.271-1.77-.071-.079-.151-.091-.243-.091l-1.451-.03c-.063 0-.109.03-.109.105v.18c0 1.209.017 2.212.08 2.76.042.381.105.628.516.687.201.029.49.045.662.045.105 0 .168.076.168.139 0 .092-.109.133-.277.133-.78 0-1.644-.046-1.841-.046-.26 0-1.115.046-1.652.046-.172 0-.26-.046-.26-.133 0-.063.046-.139.214-.139.197 0 .352-.016.474-.046.277-.058.352-.305.394-.685.063-.549.063-1.57.063-2.761v-2.272h-.004zm1.463 1.004c0 .138.034.184.122.23.293.092.935.122 1.274.122.537 0 .717-.046.948-.214.411-.288 1.166-.853 1.166-1.92 0-1.828-1.548-2.3-2.344-2.3-.34 0-.906.016-1.048.046-.089.029-.122.08-.122.184v3.852h.004zM91.763 33.663c0-1.958 0-2.318-.026-2.732-.025-.44-.13-.527-.557-.615-.105-.025-.323-.037-.503-.037-.143 0-.223-.05-.223-.139 0-.091.093-.213.286-.213.683 0 1.249.038 1.635.038.31 0 1.124-.038 1.589-.038.193 0 .28.122.28.213 0 .088-.079.139-.205.139-.142 0-.222.012-.373.037-.348.067-.448.163-.478.615-.025.414-.025.774-.025 2.732v1.802c0 1.87.373 2.652 1.006 3.175.583.477 1.179.523 1.615.523.566 0 1.404-.18 1.92-.694.709-.711.746-1.866.746-3.192v-1.614c0-1.958 0-2.318-.025-2.732-.025-.44-.126-.527-.553-.615-.105-.025-.323-.037-.466-.037-.142 0-.222-.05-.222-.139 0-.091.092-.213.273-.213.662 0 1.333.038 1.35.038.155 0 .968-.038 1.471-.038.177 0 .273.122.273.213 0 .088-.08.139-.235.139-.142 0-.218.012-.373.037-.348.067-.453.163-.478.615-.025.414-.025.774-.025 2.732v1.38c0 1.426-.143 2.949-1.224 3.878-.919.786-1.85.924-2.688.924-.688 0-1.606-.038-2.55-.887-.658-.59-1.22-1.547-1.22-3.413v-1.882h.005z"/>
</svg>
