<svg width="56" height="56" viewBox="0 0 56 56" fill="none" xmlns="http://www.w3.org/2000/svg">
<circle cx="28" cy="28" r="28" fill="#E4FBFE"/>
<path d="M37.3333 37.3333H18.6666V35.5833C18.6666 33.9653 19.6333 32.5066 21.128 31.8873C22.6413 31.26 24.894 30.6666 28 30.6666C31.106 30.6666 33.3586 31.26 34.872 31.8873C36.3666 32.5066 37.3333 33.9653 37.3333 35.5833V37.3333Z" stroke="#5BBFCC" stroke-width="2" stroke-miterlimit="10" stroke-linecap="round" stroke-linejoin="round"/>
<path d="M22.6666 21.3333C22.6666 18.388 25.0546 16 28 16C30.9453 16 33.3333 18.388 33.3333 21.3333C33.3333 24.2787 30.9453 27.3333 28 27.3333C25.0546 27.3333 22.6666 24.2787 22.6666 21.3333Z" stroke="#5BBFCC" stroke-width="2" stroke-miterlimit="10" stroke-linecap="round" stroke-linejoin="round"/>
<path d="M13.3333 18.6666V13.3333H18.6666" stroke="#5BBFCC" stroke-width="2" stroke-miterlimit="10" stroke-linecap="round" stroke-linejoin="round"/>
<path d="M42.6666 18.6666V13.3333H37.3333" stroke="#5BBFCC" stroke-width="2" stroke-miterlimit="10" stroke-linecap="round" stroke-linejoin="round"/>
<path d="M13.3333 37.3333V42.6666H18.6666" stroke="#5BBFCC" stroke-width="2" stroke-miterlimit="10" stroke-linecap="round" stroke-linejoin="round"/>
<path d="M42.6666 37.3333V42.6666H37.3333" stroke="#5BBFCC" stroke-width="2" stroke-miterlimit="10" stroke-linecap="round" stroke-linejoin="round"/>
</svg>
