<svg width="24" height="24" viewBox="0 0 24 24" fill="none" xmlns="http://www.w3.org/2000/svg">
<path d="M23.3138 3.28099C22.9607 2.92732 22.3878 2.92671 22.0348 3.27949L11.1835 14.1021L7.26844 9.84991C6.93015 9.48269 6.35818 9.45888 5.99035 9.79713C5.6228 10.1354 5.59927 10.7077 5.93757 11.0752L10.4903 16.0196C10.6571 16.2009 10.8904 16.3061 11.1365 16.3112C11.1431 16.3115 11.1495 16.3115 11.1558 16.3115C11.3949 16.3115 11.6249 16.2165 11.7944 16.0477L23.312 4.56026C23.6659 4.20752 23.6665 3.63466 23.3138 3.28099Z" fill="#46AB00"/>
<path d="M23.0955 11.0955C22.5959 11.0955 22.191 11.5004 22.191 12C22.191 17.6195 17.6195 22.191 12 22.191C6.38081 22.191 1.80905 17.6195 1.80905 12C1.80905 6.38081 6.38081 1.80905 12 1.80905C12.4996 1.80905 12.9045 1.40414 12.9045 0.904547C12.9045 0.404906 12.4996 0 12 0C5.38312 0 0 5.38312 0 12C0 18.6166 5.38312 24 12 24C18.6166 24 24 18.6166 24 12C24 11.5004 23.5951 11.0955 23.0955 11.0955Z" fill="#46AB00"/>
</svg>
