<svg width="48" height="48" viewBox="0 0 48 48" fill="none" xmlns="http://www.w3.org/2000/svg">
<circle cx="24" cy="24" r="24" fill="white" fill-opacity="0.2"/>
<path d="M26.8372 16.5871C27.9573 16.8057 28.9867 17.3535 29.7937 18.1604C30.6007 18.9674 31.1485 19.9968 31.367 21.1169M26.8372 12C29.1643 12.2585 31.3344 13.3007 32.9911 14.9553C34.6478 16.6099 35.6927 18.7786 35.9541 21.1055M34.8073 30.2568V33.6971C34.8086 34.0165 34.7432 34.3326 34.6153 34.6253C34.4873 34.9179 34.2997 35.1806 34.0643 35.3965C33.829 35.6124 33.5511 35.7768 33.2486 35.8791C32.946 35.9814 32.6254 36.0194 32.3074 35.9907C28.7785 35.6073 25.3888 34.4014 22.4106 32.4701C19.6398 30.7094 17.2906 28.3602 15.5299 25.5894C13.5918 22.5977 12.3857 19.1915 12.0093 15.6468C11.9807 15.3296 12.0183 15.01 12.12 14.7083C12.2216 14.4065 12.385 14.1292 12.5996 13.8941C12.8143 13.6589 13.0756 13.471 13.3669 13.3423C13.6581 13.2137 13.973 13.1471 14.2914 13.1468H17.7318C18.2883 13.1413 18.8278 13.3384 19.2498 13.7013C19.6718 14.0642 19.9474 14.5682 20.0253 15.1192C20.1705 16.2202 20.4398 17.3013 20.8281 18.3417C20.9824 18.7522 21.0158 19.1983 20.9243 19.6271C20.8328 20.056 20.6203 20.4496 20.312 20.7614L18.8556 22.2178C20.4881 25.0889 22.8653 27.466 25.7363 29.0985L27.1927 27.6421C27.5045 27.3338 27.8982 27.1213 28.327 27.0298C28.7559 26.9384 29.202 26.9718 29.6124 27.1261C30.6529 27.5143 31.7339 27.7836 32.8349 27.9288C33.3919 28.0074 33.9007 28.288 34.2644 28.7172C34.6281 29.1464 34.8213 29.6944 34.8073 30.2568Z" stroke="white" stroke-width="2" stroke-linecap="round" stroke-linejoin="round"/>
</svg>
