<svg width="180" height="152" viewBox="0 0 180 152" fill="none" xmlns="http://www.w3.org/2000/svg">
<path d="M135.851 118.6L130.747 134H127.711L123.905 122.604L120.033 134H116.975L111.871 118.6H114.841L118.669 130.304L122.651 118.6H125.291L129.185 130.37L133.123 118.6H135.851ZM148.08 128.192C148.08 128.383 148.066 128.654 148.036 129.006H138.818C138.98 129.871 139.398 130.561 140.072 131.074C140.762 131.573 141.612 131.822 142.624 131.822C143.915 131.822 144.978 131.397 145.814 130.546L147.288 132.24C146.76 132.871 146.093 133.347 145.286 133.67C144.48 133.993 143.57 134.154 142.558 134.154C141.268 134.154 140.131 133.897 139.148 133.384C138.166 132.871 137.403 132.159 136.86 131.25C136.332 130.326 136.068 129.285 136.068 128.126C136.068 126.982 136.325 125.955 136.838 125.046C137.366 124.122 138.092 123.403 139.016 122.89C139.94 122.377 140.982 122.12 142.14 122.12C143.284 122.12 144.304 122.377 145.198 122.89C146.108 123.389 146.812 124.1 147.31 125.024C147.824 125.933 148.08 126.989 148.08 128.192ZM142.14 124.32C141.26 124.32 140.512 124.584 139.896 125.112C139.295 125.625 138.928 126.315 138.796 127.18H145.462C145.345 126.329 144.986 125.64 144.384 125.112C143.783 124.584 143.035 124.32 142.14 124.32ZM157.234 122.12C158.378 122.12 159.397 122.369 160.292 122.868C161.201 123.367 161.913 124.071 162.426 124.98C162.939 125.889 163.196 126.938 163.196 128.126C163.196 129.314 162.939 130.37 162.426 131.294C161.913 132.203 161.201 132.907 160.292 133.406C159.397 133.905 158.378 134.154 157.234 134.154C156.427 134.154 155.687 134.015 155.012 133.736C154.352 133.457 153.795 133.039 153.34 132.482V134H150.722V117.676H153.472V123.682C153.941 123.169 154.491 122.78 155.122 122.516C155.767 122.252 156.471 122.12 157.234 122.12ZM156.926 131.8C157.938 131.8 158.767 131.463 159.412 130.788C160.072 130.113 160.402 129.226 160.402 128.126C160.402 127.026 160.072 126.139 159.412 125.464C158.767 124.789 157.938 124.452 156.926 124.452C156.266 124.452 155.672 124.606 155.144 124.914C154.616 125.207 154.198 125.633 153.89 126.19C153.582 126.747 153.428 127.393 153.428 128.126C153.428 128.859 153.582 129.505 153.89 130.062C154.198 130.619 154.616 131.052 155.144 131.36C155.672 131.653 156.266 131.8 156.926 131.8Z" fill="white"/>
<path d="M85.0898 95.3389C85.0898 95.3389 97.8251 102.818 110.095 96.0374C107.872 100.362 97.938 111.926 85.0898 95.3389Z" fill="white"/>
<path d="M82.4024 90.7809C82.4024 90.7809 86.7486 88.8476 100.281 90.7809C111.161 92.3331 115.585 87.5071 115.585 87.5071C115.585 87.5071 108.656 100.652 95.0248 95.3317C81.9437 90.2376 82.4024 90.7809 82.4024 90.7809Z" fill="white"/>
<path d="M75.6426 88.1491C75.6426 88.1491 81.2306 80.8113 105.523 81.4252C123.373 80.7408 126.316 74.7859 126.316 74.7859C126.316 74.7859 124.742 90.6891 95.2147 86.8438C81.8585 85.7996 75.6426 88.1491 75.6426 88.1491Z" fill="white"/>
<path d="M80.3984 82.3635C80.3984 82.3635 85.0128 73.7698 119.522 71.2016C133.245 67.8643 136.836 60.4277 136.836 60.4277C136.836 60.4277 133.012 77.3681 107.845 78.7722C82.6774 80.1762 80.3984 82.3635 80.3984 82.3635Z" fill="white"/>
<path d="M85.916 76.4653C85.916 76.4653 90.5304 69.9248 105.672 66.2065C120.813 62.4882 137.478 55.9407 144.534 46.4509C140.942 55.2986 135.425 63.8993 118.88 67.9986C102.334 72.0979 94.8907 71.5899 85.916 76.4653Z" fill="white"/>
<path d="M88.1162 72.8104C88.1162 72.8104 94.2475 59.4683 118.236 51.9682C139.255 45.3854 154.664 24 154.664 24C154.664 24 148.97 51.7072 115.576 59.1437C102.333 61.712 88.1162 72.8104 88.1162 72.8104Z" fill="white"/>
<path d="M80.3984 65.2891C80.3984 65.2891 88.3359 70.9758 80.3984 80.261C80.4337 78.1866 82.9808 72.0695 80.3984 65.2891Z" fill="white"/>
<path d="M75.6426 58.8403C75.6426 58.8403 83.3896 67.9491 78.3801 79.499C78.1614 77.9045 78.6482 64.1249 75.6426 58.8403Z" fill="white"/>
<path d="M67.5215 51.2273C67.5215 51.2273 74.323 53.4992 75.6424 63.6239C76.9618 73.7486 76.1645 80.6278 76.1645 80.6278C76.1645 80.6278 72.7003 57.8877 67.5215 51.2273Z" fill="white"/>
<path d="M55.2939 45.0327C55.2939 45.0327 65.4187 44.433 70.2517 60.4279C75.0848 76.4229 73.9488 81.4676 73.9488 81.4676C73.9488 81.4676 69.2498 57.5281 55.2939 45.0327Z" fill="white"/>
<path d="M40.125 40.7358C40.125 40.7358 56.8114 41.3779 64.2197 58.8404C71.6281 76.3029 71.9667 81.4676 71.9667 81.4676C71.9667 81.4676 63.0697 53.3794 40.125 40.7358Z" fill="white"/>
<path d="M26 39.106C26 39.106 60.3535 45.6182 69.1236 80.134C58.632 59.0944 40.1958 42.5208 26 39.106Z" fill="white"/>
<path d="M26 39.106C26 39.106 60.3535 45.6182 69.1236 80.134C58.632 59.0944 33.8317 41.1238 26 39.106Z" fill="white"/>
<path d="M90 14V50" stroke="white" stroke-width="1.5" stroke-miterlimit="10"/>
<path d="M72 32H108" stroke="white" stroke-width="1.5" stroke-miterlimit="10"/>
<path d="M90 50C95.6804 50 100.285 41.9411 100.285 32C100.285 22.0589 95.6804 14 90 14C84.3197 14 79.7148 22.0589 79.7148 32C79.7148 41.9411 84.3197 50 90 50Z" stroke="white" stroke-width="1.5" stroke-miterlimit="10" stroke-linecap="square"/>
<path d="M74.7734 22.3999H105.229" stroke="white" stroke-width="1.5" stroke-miterlimit="10"/>
<path d="M74.7734 41.6001H105.229" stroke="white" stroke-width="1.5" stroke-miterlimit="10"/>
<path d="M90 50C99.9411 50 108 41.9411 108 32C108 22.0589 99.9411 14 90 14C80.0589 14 72 22.0589 72 32C72 41.9411 80.0589 50 90 50Z" stroke="white" stroke-width="1.5" stroke-miterlimit="10" stroke-linecap="square"/>
</svg>
