<svg width="180" height="152" viewBox="0 0 180 152" fill="none" xmlns="http://www.w3.org/2000/svg">
<path d="M103.536 134L103.514 123.792L98.4543 132.24H97.1783L92.1183 123.924V134H89.3903V118.6H91.7443L97.8603 128.808L103.866 118.6H106.22L106.242 134H103.536ZM115.418 134.154C114.23 134.154 113.159 133.897 112.206 133.384C111.253 132.871 110.505 132.159 109.962 131.25C109.434 130.326 109.17 129.285 109.17 128.126C109.17 126.967 109.434 125.933 109.962 125.024C110.505 124.115 111.253 123.403 112.206 122.89C113.159 122.377 114.23 122.12 115.418 122.12C116.621 122.12 117.699 122.377 118.652 122.89C119.605 123.403 120.346 124.115 120.874 125.024C121.417 125.933 121.688 126.967 121.688 128.126C121.688 129.285 121.417 130.326 120.874 131.25C120.346 132.159 119.605 132.871 118.652 133.384C117.699 133.897 116.621 134.154 115.418 134.154ZM115.418 131.8C116.43 131.8 117.266 131.463 117.926 130.788C118.586 130.113 118.916 129.226 118.916 128.126C118.916 127.026 118.586 126.139 117.926 125.464C117.266 124.789 116.43 124.452 115.418 124.452C114.406 124.452 113.57 124.789 112.91 125.464C112.265 126.139 111.942 127.026 111.942 128.126C111.942 129.226 112.265 130.113 112.91 130.788C113.57 131.463 114.406 131.8 115.418 131.8ZM130.83 122.12C131.974 122.12 132.993 122.369 133.888 122.868C134.797 123.367 135.508 124.071 136.022 124.98C136.535 125.889 136.792 126.938 136.792 128.126C136.792 129.314 136.535 130.37 136.022 131.294C135.508 132.203 134.797 132.907 133.888 133.406C132.993 133.905 131.974 134.154 130.83 134.154C130.023 134.154 129.282 134.015 128.608 133.736C127.948 133.457 127.39 133.039 126.936 132.482V134H124.318V117.676H127.068V123.682C127.537 123.169 128.087 122.78 128.718 122.516C129.363 122.252 130.067 122.12 130.83 122.12ZM130.522 131.8C131.534 131.8 132.362 131.463 133.008 130.788C133.668 130.113 133.998 129.226 133.998 128.126C133.998 127.026 133.668 126.139 133.008 125.464C132.362 124.789 131.534 124.452 130.522 124.452C129.862 124.452 129.268 124.606 128.74 124.914C128.212 125.207 127.794 125.633 127.486 126.19C127.178 126.747 127.024 127.393 127.024 128.126C127.024 128.859 127.178 129.505 127.486 130.062C127.794 130.619 128.212 131.052 128.74 131.36C129.268 131.653 129.862 131.8 130.522 131.8ZM139.4 122.252H142.15V134H139.4V122.252ZM140.786 120.316C140.287 120.316 139.869 120.162 139.532 119.854C139.194 119.531 139.026 119.135 139.026 118.666C139.026 118.197 139.194 117.808 139.532 117.5C139.869 117.177 140.287 117.016 140.786 117.016C141.284 117.016 141.702 117.17 142.04 117.478C142.377 117.771 142.546 118.145 142.546 118.6C142.546 119.084 142.377 119.495 142.04 119.832C141.717 120.155 141.299 120.316 140.786 120.316ZM145.759 117.676H148.509V134H145.759V117.676ZM163.162 128.192C163.162 128.383 163.148 128.654 163.118 129.006H153.9C154.062 129.871 154.48 130.561 155.154 131.074C155.844 131.573 156.694 131.822 157.706 131.822C158.997 131.822 160.06 131.397 160.896 130.546L162.37 132.24C161.842 132.871 161.175 133.347 160.368 133.67C159.562 133.993 158.652 134.154 157.64 134.154C156.35 134.154 155.213 133.897 154.23 133.384C153.248 132.871 152.485 132.159 151.942 131.25C151.414 130.326 151.15 129.285 151.15 128.126C151.15 126.982 151.407 125.955 151.92 125.046C152.448 124.122 153.174 123.403 154.098 122.89C155.022 122.377 156.064 122.12 157.222 122.12C158.366 122.12 159.386 122.377 160.28 122.89C161.19 123.389 161.894 124.1 162.392 125.024C162.906 125.933 163.162 126.989 163.162 128.192ZM157.222 124.32C156.342 124.32 155.594 124.584 154.978 125.112C154.377 125.625 154.01 126.315 153.878 127.18H160.544C160.427 126.329 160.068 125.64 159.466 125.112C158.865 124.584 158.117 124.32 157.222 124.32Z" fill="white"/>
<path d="M85.0898 95.3389C85.0898 95.3389 97.8251 102.818 110.095 96.0374C107.872 100.362 97.938 111.926 85.0898 95.3389Z" fill="white"/>
<path d="M82.4024 90.7809C82.4024 90.7809 86.7486 88.8476 100.281 90.7809C111.161 92.3331 115.585 87.5071 115.585 87.5071C115.585 87.5071 108.656 100.652 95.0248 95.3317C81.9437 90.2376 82.4024 90.7809 82.4024 90.7809Z" fill="white"/>
<path d="M75.6426 88.1491C75.6426 88.1491 81.2306 80.8113 105.523 81.4252C123.373 80.7408 126.316 74.7859 126.316 74.7859C126.316 74.7859 124.742 90.6891 95.2147 86.8438C81.8585 85.7996 75.6426 88.1491 75.6426 88.1491Z" fill="white"/>
<path d="M80.3984 82.3635C80.3984 82.3635 85.0128 73.7698 119.522 71.2016C133.245 67.8643 136.836 60.4277 136.836 60.4277C136.836 60.4277 133.012 77.3681 107.845 78.7722C82.6774 80.1762 80.3984 82.3635 80.3984 82.3635Z" fill="white"/>
<path d="M85.916 76.4653C85.916 76.4653 90.5304 69.9248 105.672 66.2065C120.813 62.4882 137.478 55.9407 144.534 46.4509C140.942 55.2986 135.425 63.8993 118.88 67.9986C102.334 72.0979 94.8907 71.5899 85.916 76.4653Z" fill="white"/>
<path d="M88.1162 72.8104C88.1162 72.8104 94.2475 59.4683 118.236 51.9682C139.255 45.3854 154.664 24 154.664 24C154.664 24 148.97 51.7072 115.576 59.1437C102.333 61.712 88.1162 72.8104 88.1162 72.8104Z" fill="white"/>
<path d="M80.3984 65.2891C80.3984 65.2891 88.3359 70.9758 80.3984 80.261C80.4337 78.1866 82.9808 72.0695 80.3984 65.2891Z" fill="white"/>
<path d="M75.6426 58.8403C75.6426 58.8403 83.3896 67.9491 78.3801 79.499C78.1614 77.9045 78.6482 64.1249 75.6426 58.8403Z" fill="white"/>
<path d="M67.5215 51.2273C67.5215 51.2273 74.323 53.4992 75.6424 63.6239C76.9618 73.7486 76.1645 80.6278 76.1645 80.6278C76.1645 80.6278 72.7003 57.8877 67.5215 51.2273Z" fill="white"/>
<path d="M55.2939 45.0327C55.2939 45.0327 65.4187 44.433 70.2517 60.4279C75.0848 76.4229 73.9488 81.4676 73.9488 81.4676C73.9488 81.4676 69.2498 57.5281 55.2939 45.0327Z" fill="white"/>
<path d="M40.125 40.7358C40.125 40.7358 56.8114 41.3779 64.2197 58.8404C71.6281 76.3029 71.9667 81.4676 71.9667 81.4676C71.9667 81.4676 63.0697 53.3794 40.125 40.7358Z" fill="white"/>
<path d="M26 39.106C26 39.106 60.3535 45.6182 69.1236 80.134C58.632 59.0944 40.1958 42.5208 26 39.106Z" fill="white"/>
<path d="M26 39.106C26 39.106 60.3535 45.6182 69.1236 80.134C58.632 59.0944 33.8317 41.1238 26 39.106Z" fill="white"/>
<path d="M90.4864 16.0292C104.026 16.0292 116.094 21.6094 123.973 30.3247C116.571 20.4578 104.34 14 90.4864 14C76.6322 14 64.3963 20.4578 57 30.3247C64.8782 21.6094 76.9467 16.0292 90.4864 16.0292Z" fill="white"/>
<path d="M90.4711 29.3101C100.982 29.3101 110.337 33.6729 116.358 40.4553C110.966 32.2423 101.393 26.7737 90.4711 26.7737C79.5491 26.7737 69.9765 32.2423 64.584 40.4553C70.6055 33.6729 79.96 29.3101 90.4711 29.3101Z" fill="white"/>
<path d="M90.3449 41.1554C96.0824 41.1554 101.277 43.007 105.021 46C101.886 41.5561 96.4831 38.6189 90.3449 38.6189C84.2067 38.6189 78.8091 41.5561 75.6689 46C79.4128 43.012 84.6074 41.1554 90.3449 41.1554Z" fill="white"/>
</svg>
