<svg width="180" height="152" viewBox="0 0 180 152" fill="none" xmlns="http://www.w3.org/2000/svg">
<path d="M115.793 125.992C116.643 126.271 117.318 126.74 117.817 127.4C118.315 128.045 118.565 128.852 118.565 129.82C118.565 131.155 118.051 132.189 117.025 132.922C115.998 133.641 114.502 134 112.537 134H104.881V118.6H112.097C113.915 118.6 115.316 118.959 116.299 119.678C117.281 120.382 117.773 121.357 117.773 122.604C117.773 123.367 117.597 124.041 117.245 124.628C116.893 125.215 116.409 125.669 115.793 125.992ZM107.741 120.844V125.09H111.789C112.786 125.09 113.549 124.914 114.077 124.562C114.619 124.195 114.891 123.667 114.891 122.978C114.891 122.274 114.619 121.746 114.077 121.394C113.549 121.027 112.786 120.844 111.789 120.844H107.741ZM112.361 131.756C114.575 131.756 115.683 131.015 115.683 129.534C115.683 128.053 114.575 127.312 112.361 127.312H107.741V131.756H112.361ZM126.633 134.154C125.445 134.154 124.374 133.897 123.421 133.384C122.467 132.871 121.719 132.159 121.177 131.25C120.649 130.326 120.385 129.285 120.385 128.126C120.385 126.967 120.649 125.933 121.177 125.024C121.719 124.115 122.467 123.403 123.421 122.89C124.374 122.377 125.445 122.12 126.633 122.12C127.835 122.12 128.913 122.377 129.867 122.89C130.82 123.403 131.561 124.115 132.089 125.024C132.631 125.933 132.903 126.967 132.903 128.126C132.903 129.285 132.631 130.326 132.089 131.25C131.561 132.159 130.82 132.871 129.867 133.384C128.913 133.897 127.835 134.154 126.633 134.154ZM126.633 131.8C127.645 131.8 128.481 131.463 129.141 130.788C129.801 130.113 130.131 129.226 130.131 128.126C130.131 127.026 129.801 126.139 129.141 125.464C128.481 124.789 127.645 124.452 126.633 124.452C125.621 124.452 124.785 124.789 124.125 125.464C123.479 126.139 123.157 127.026 123.157 128.126C123.157 129.226 123.479 130.113 124.125 130.788C124.785 131.463 125.621 131.8 126.633 131.8ZM142.199 122.12C143.68 122.12 144.868 122.553 145.763 123.418C146.657 124.283 147.105 125.567 147.105 127.268V134H144.355V127.62C144.355 126.593 144.113 125.823 143.629 125.31C143.145 124.782 142.455 124.518 141.561 124.518C140.549 124.518 139.749 124.826 139.163 125.442C138.576 126.043 138.283 126.916 138.283 128.06V134H135.533V122.252H138.151V123.77C138.605 123.227 139.177 122.817 139.867 122.538C140.556 122.259 141.333 122.12 142.199 122.12ZM162.206 117.676V134H159.566V132.482C159.112 133.039 158.547 133.457 157.872 133.736C157.212 134.015 156.479 134.154 155.672 134.154C154.543 134.154 153.524 133.905 152.614 133.406C151.72 132.907 151.016 132.203 150.502 131.294C149.989 130.37 149.732 129.314 149.732 128.126C149.732 126.938 149.989 125.889 150.502 124.98C151.016 124.071 151.72 123.367 152.614 122.868C153.524 122.369 154.543 122.12 155.672 122.12C156.45 122.12 157.161 122.252 157.806 122.516C158.452 122.78 159.002 123.176 159.456 123.704V117.676H162.206ZM156.002 131.8C156.662 131.8 157.256 131.653 157.784 131.36C158.312 131.052 158.73 130.619 159.038 130.062C159.346 129.505 159.5 128.859 159.5 128.126C159.5 127.393 159.346 126.747 159.038 126.19C158.73 125.633 158.312 125.207 157.784 124.914C157.256 124.606 156.662 124.452 156.002 124.452C155.342 124.452 154.748 124.606 154.22 124.914C153.692 125.207 153.274 125.633 152.966 126.19C152.658 126.747 152.504 127.393 152.504 128.126C152.504 128.859 152.658 129.505 152.966 130.062C153.274 130.619 153.692 131.052 154.22 131.36C154.748 131.653 155.342 131.8 156.002 131.8Z" fill="white"/>
<path d="M85.0898 95.3389C85.0898 95.3389 97.8251 102.818 110.095 96.0374C107.872 100.362 97.938 111.926 85.0898 95.3389Z" fill="white"/>
<path d="M82.4024 90.7809C82.4024 90.7809 86.7486 88.8476 100.281 90.7809C111.161 92.3331 115.585 87.5071 115.585 87.5071C115.585 87.5071 108.656 100.652 95.0248 95.3317C81.9437 90.2376 82.4024 90.7809 82.4024 90.7809Z" fill="white"/>
<path d="M75.6426 88.1491C75.6426 88.1491 81.2306 80.8113 105.523 81.4252C123.373 80.7408 126.316 74.7859 126.316 74.7859C126.316 74.7859 124.742 90.6891 95.2147 86.8438C81.8585 85.7996 75.6426 88.1491 75.6426 88.1491Z" fill="white"/>
<path d="M80.3984 82.3635C80.3984 82.3635 85.0128 73.7698 119.522 71.2016C133.245 67.8643 136.836 60.4277 136.836 60.4277C136.836 60.4277 133.012 77.3681 107.845 78.7722C82.6774 80.1762 80.3984 82.3635 80.3984 82.3635Z" fill="white"/>
<path d="M85.916 76.4653C85.916 76.4653 90.5304 69.9248 105.672 66.2065C120.813 62.4882 137.478 55.9407 144.534 46.4509C140.942 55.2986 135.425 63.8993 118.88 67.9986C102.334 72.0979 94.8907 71.5899 85.916 76.4653Z" fill="white"/>
<path d="M88.1162 72.8104C88.1162 72.8104 94.2475 59.4683 118.236 51.9682C139.255 45.3854 154.664 24 154.664 24C154.664 24 148.97 51.7072 115.576 59.1437C102.333 61.712 88.1162 72.8104 88.1162 72.8104Z" fill="white"/>
<path d="M80.3984 65.2891C80.3984 65.2891 88.3359 70.9758 80.3984 80.261C80.4337 78.1866 82.9808 72.0695 80.3984 65.2891Z" fill="white"/>
<path d="M75.6426 58.8403C75.6426 58.8403 83.3896 67.9491 78.3801 79.499C78.1614 77.9045 78.6482 64.1249 75.6426 58.8403Z" fill="white"/>
<path d="M67.5215 51.2273C67.5215 51.2273 74.323 53.4992 75.6424 63.6239C76.9618 73.7486 76.1645 80.6278 76.1645 80.6278C76.1645 80.6278 72.7003 57.8877 67.5215 51.2273Z" fill="white"/>
<path d="M55.2939 45.0327C55.2939 45.0327 65.4187 44.433 70.2517 60.4279C75.0848 76.4229 73.9488 81.4676 73.9488 81.4676C73.9488 81.4676 69.2498 57.5281 55.2939 45.0327Z" fill="white"/>
<path d="M40.125 40.7358C40.125 40.7358 56.8114 41.3779 64.2197 58.8404C71.6281 76.3029 71.9667 81.4676 71.9667 81.4676C71.9667 81.4676 63.0697 53.3794 40.125 40.7358Z" fill="white"/>
<path d="M26 39.106C26 39.106 60.3535 45.6182 69.1236 80.134C58.632 59.0944 40.1958 42.5208 26 39.106Z" fill="white"/>
<path d="M26 39.106C26 39.106 60.3535 45.6182 69.1236 80.134C58.632 59.0944 33.8317 41.1238 26 39.106Z" fill="white"/>
<path d="M91.7038 43.28C98.0985 43.28 104.253 44.224 109.747 46C104.45 43.424 98.2265 42.0374 91.7038 42.0374C85.1811 42.0374 78.9625 43.424 73.6611 46C79.1598 44.224 85.3145 43.28 91.7038 43.28Z" fill="white"/>
<path d="M78.776 44.6294C76.0347 41.504 74.5307 37.536 74.5307 33.3387C74.5307 28.7573 76.3173 24.448 79.56 21.2107C82.8027 17.9733 87.1173 16.1867 91.704 16.1867C96.2907 16.1867 100.6 17.9733 103.848 21.2107C107.091 24.448 108.877 28.7573 108.877 33.3387C108.877 37.536 107.379 41.4987 104.632 44.6294C105.043 44.72 105.448 44.8107 105.853 44.9067C108.803 41.5147 110.413 37.2214 110.413 32.6827C110.413 27.6907 108.467 22.9973 104.936 19.472C101.4 15.9413 96.7014 14 91.704 14C86.7067 14 82.0133 15.9413 78.4773 19.472C74.9467 23.0027 73 27.696 73 32.688C73 37.2267 74.6107 41.52 77.56 44.912C77.96 44.816 78.3653 44.72 78.776 44.6294Z" fill="white"/>
<path d="M92.5894 29.6748H90.824C89.816 29.6748 89 28.8588 89 27.8508C89 26.8481 89.816 26.0268 90.824 26.0268H94.3547C94.808 26.0268 95.1814 25.6588 95.1814 25.2054C95.1814 24.7521 94.8134 24.3841 94.3547 24.3841H92.5307V22.5601C92.5307 22.1068 92.1627 21.7388 91.704 21.7388C91.2507 21.7388 90.8774 22.1068 90.8774 22.5601V24.3841H90.8187C88.904 24.3841 87.3467 25.9414 87.3467 27.8508C87.3467 29.7601 88.904 31.3174 90.8187 31.3174H92.584C93.592 31.3174 94.408 32.1334 94.408 33.1414C94.408 34.1441 93.592 34.9654 92.584 34.9654H89.0533C88.6 34.9654 88.2267 35.3334 88.2267 35.7868C88.2267 36.2401 88.5947 36.6081 89.0533 36.6081H90.8774V38.4321C90.8774 38.8855 91.2454 39.2535 91.704 39.2535C92.1574 39.2535 92.5307 38.8855 92.5307 38.4321V36.6081H92.5894C94.504 36.6081 96.0614 35.0508 96.0614 33.1414C96.0614 31.2321 94.504 29.6748 92.5894 29.6748Z" fill="white"/>
</svg>
