<svg xmlns="http://www.w3.org/2000/svg" width="80" height="80" fill="none" viewBox="0 0 80 80">
    <g clip-path="url(#clip0)">
        <path fill="#fff" fill-opacity=".4" d="M40 80c22.092 0 40-17.908 40-40C80 17.91 62.092 0 40 0 17.91 0 0 17.909 0 40c0 22.092 17.909 40 40 40z"/>
        <path fill="#FFCB00" d="M70.785 33.183H9.214v41.65h61.571v-41.65z"/>
        <path fill="#FFB300" d="M40 5.113L9.213 33.183l30.785 28.122 30.786-28.123L40 5.113z"/>
        <path fill="#FCFCFD" d="M16.352 39.68l22.956 20.986h1.385L63.649 39.68V13.635H16.352v26.046z"/>
        <path fill="#71D456" d="M56.245 20.772H23.703v2.237h32.543v-2.237z"/>
        <path fill="#F1F3F7" d="M56.245 27.004H23.703v2.237h32.543v-2.237zM56.245 33.768H23.703v2.237h32.543v-2.237zM56.245 40.532H23.703v2.237h32.543v-2.237zM55.394 47.244H24.608l2.45 2.29h25.886l2.45-2.29zM47.99 54.008H32.01l2.45 2.237h11.08l2.45-2.237z"/>
        <path fill="#FFBC00" d="M45.166 56.405H34.833L9.213 74.887h61.572l-25.62-18.482z"/>
    </g>
    <defs>
        <clipPath id="clip0">
            <path fill="#fff" d="M0 0H80V80H0z"/>
        </clipPath>
    </defs>
</svg>
