<svg width="180" height="152" viewBox="0 0 180 152" fill="none" xmlns="http://www.w3.org/2000/svg" version="1.1">
<path d="M85.0898 95.3389C85.0898 95.3389 97.8251 102.818 110.095 96.0374C107.872 100.362 97.938 111.926 85.0898 95.3389Z" fill="white"/>
<path d="M82.4024 90.7809C82.4024 90.7809 86.7486 88.8476 100.281 90.7809C111.161 92.3331 115.585 87.5071 115.585 87.5071C115.585 87.5071 108.656 100.652 95.0248 95.3317C81.9437 90.2376 82.4024 90.7809 82.4024 90.7809Z" fill="white"/>
<path d="M75.6426 88.1491C75.6426 88.1491 81.2306 80.8113 105.523 81.4252C123.373 80.7408 126.316 74.7859 126.316 74.7859C126.316 74.7859 124.742 90.6891 95.2147 86.8438C81.8585 85.7996 75.6426 88.1491 75.6426 88.1491Z" fill="white"/>
<path d="M80.3984 82.3635C80.3984 82.3635 85.0128 73.7698 119.522 71.2016C133.245 67.8643 136.836 60.4277 136.836 60.4277C136.836 60.4277 133.012 77.3681 107.845 78.7722C82.6774 80.1762 80.3984 82.3635 80.3984 82.3635Z" fill="white"/>
<path d="M85.916 76.4653C85.916 76.4653 90.5304 69.9248 105.672 66.2065C120.813 62.4882 137.478 55.9407 144.534 46.4509C140.942 55.2986 135.425 63.8993 118.88 67.9986C102.334 72.0979 94.8907 71.5899 85.916 76.4653Z" fill="white"/>
<path d="M88.1162 72.8104C88.1162 72.8104 94.2475 59.4683 118.236 51.9682C139.255 45.3854 154.664 24 154.664 24C154.664 24 148.97 51.7072 115.576 59.1437C102.333 61.712 88.1162 72.8104 88.1162 72.8104Z" fill="white"/>
<path d="M80.3984 65.2891C80.3984 65.2891 88.3359 70.9758 80.3984 80.261C80.4337 78.1866 82.9808 72.0695 80.3984 65.2891Z" fill="white"/>
<path d="M75.6426 58.8403C75.6426 58.8403 83.3896 67.9491 78.3801 79.499C78.1614 77.9045 78.6482 64.1249 75.6426 58.8403Z" fill="white"/>
<path d="M67.5215 51.2273C67.5215 51.2273 74.323 53.4992 75.6424 63.6239C76.9618 73.7486 76.1645 80.6278 76.1645 80.6278C76.1645 80.6278 72.7003 57.8877 67.5215 51.2273Z" fill="white"/>
<path d="M55.2939 45.0327C55.2939 45.0327 65.4187 44.433 70.2517 60.4279C75.0848 76.4229 73.9488 81.4676 73.9488 81.4676C73.9488 81.4676 69.2498 57.5281 55.2939 45.0327Z" fill="white"/>
<path d="M40.125 40.7358C40.125 40.7358 56.8114 41.3779 64.2197 58.8404C71.6281 76.3029 71.9667 81.4676 71.9667 81.4676C71.9667 81.4676 63.0697 53.3794 40.125 40.7358Z" fill="white"/>
<path d="M26 39.106C26 39.106 60.3535 45.6182 69.1236 80.134C58.632 59.0944 40.1958 42.5208 26 39.106Z" fill="white"/>
<path d="M26 39.106C26 39.106 60.3535 45.6182 69.1236 80.134C58.632 59.0944 33.8317 41.1238 26 39.106Z" fill="white"/>
<path d="M133.56 118.6C134.895 118.6 136.054 118.82 137.036 119.26C138.034 119.7 138.796 120.331 139.324 121.152C139.852 121.973 140.116 122.949 140.116 124.078C140.116 125.193 139.852 126.168 139.324 127.004C138.796 127.825 138.034 128.456 137.036 128.896C136.054 129.336 134.895 129.556 133.56 129.556H130.084V134H127.224V118.6H133.56ZM133.428 127.136C134.675 127.136 135.621 126.872 136.266 126.344C136.912 125.816 137.234 125.061 137.234 124.078C137.234 123.095 136.912 122.34 136.266 121.812C135.621 121.284 134.675 121.02 133.428 121.02H130.084V127.136H133.428ZM145.219 123.968C146.011 122.736 147.404 122.12 149.399 122.12V124.738C149.164 124.694 148.952 124.672 148.761 124.672C147.69 124.672 146.854 124.987 146.253 125.618C145.652 126.234 145.351 127.129 145.351 128.302V134H142.601V122.252H145.219V123.968ZM156.904 134.154C155.716 134.154 154.646 133.897 153.692 133.384C152.739 132.871 151.991 132.159 151.448 131.25C150.92 130.326 150.656 129.285 150.656 128.126C150.656 126.967 150.92 125.933 151.448 125.024C151.991 124.115 152.739 123.403 153.692 122.89C154.646 122.377 155.716 122.12 156.904 122.12C158.107 122.12 159.185 122.377 160.138 122.89C161.092 123.403 161.832 124.115 162.36 125.024C162.903 125.933 163.174 126.967 163.174 128.126C163.174 129.285 162.903 130.326 162.36 131.25C161.832 132.159 161.092 132.871 160.138 133.384C159.185 133.897 158.107 134.154 156.904 134.154ZM156.904 131.8C157.916 131.8 158.752 131.463 159.412 130.788C160.072 130.113 160.402 129.226 160.402 128.126C160.402 127.026 160.072 126.139 159.412 125.464C158.752 124.789 157.916 124.452 156.904 124.452C155.892 124.452 155.056 124.789 154.396 125.464C153.751 126.139 153.428 127.026 153.428 128.126C153.428 129.226 153.751 130.113 154.396 130.788C155.056 131.463 155.892 131.8 156.904 131.8Z" fill="white"/>
</svg>
