<svg width="16" height="16" viewBox="0 0 16 16" fill="none" xmlns="http://www.w3.org/2000/svg">
<path d="M14.333 11.7423C13.9867 12.5093 13.8214 12.8517 13.3754 13.5293C12.754 14.4757 11.8774 15.6543 10.791 15.6643C9.82602 15.6733 9.57802 15.0363 8.26802 15.044C6.95802 15.0517 6.68502 15.6757 5.72002 15.6667C4.63369 15.657 3.80369 14.5927 3.18169 13.6457C1.44302 10.999 1.26136 7.89335 2.33369 6.24235C3.09569 5.06835 4.29836 4.38235 5.42869 4.38235C6.57969 4.38235 7.30336 5.01335 8.25536 5.01335C9.17869 5.01335 9.74102 4.38135 11.072 4.38135C12.078 4.38135 13.144 4.92901 13.9037 5.87535C11.4147 7.23901 11.8194 10.792 14.333 11.7423Z" fill="white"/>
<path d="M10.2023 2.72537C10.686 2.10471 11.0527 1.22904 10.9193 0.333374C10.1293 0.387374 9.206 0.890041 8.66667 1.54504C8.177 2.13937 7.77267 3.02104 7.93 3.87804C8.79167 3.90504 9.684 3.39004 10.2023 2.72537Z" fill="white"/>
</svg>
