<svg width="16" height="16" viewBox="0 0 16 16" fill="none" xmlns="http://www.w3.org/2000/svg">
<path d="M15.977 4.887C15.9707 4.81912 15.9573 4.75208 15.937 4.687C15.9145 4.62182 15.8846 4.55942 15.848 4.501C15.8338 4.46684 15.8178 4.43346 15.8 4.401L12.8 0.401C12.707 0.27662 12.5862 0.175624 12.4474 0.10602C12.3085 0.0364156 12.1553 0.000116378 12 0L4 0C3.84475 0 3.69164 0.0361451 3.55279 0.105573C3.41393 0.175001 3.29315 0.275804 3.2 0.4L0.2 4.4C0.182246 4.43246 0.166223 4.46584 0.152 4.5C0.115173 4.55867 0.0853054 4.62142 0.063 4.687C0.0425803 4.75205 0.0291708 4.8191 0.023 4.887C0.0128849 4.92413 0.00520189 4.96187 0 5L0 14C0 14.5304 0.210714 15.0391 0.585786 15.4142C0.960859 15.7893 1.46957 16 2 16H14C14.5304 16 15.0391 15.7893 15.4142 15.4142C15.7893 15.0391 16 14.5304 16 14V5C15.9948 4.96187 15.9872 4.92412 15.977 4.887ZM8 13.5L5 10H7V7H9V10H11L8 13.5ZM3 4L4.5 2H11.5L13 4H3Z" fill="white"/>
</svg>
