<svg width="16" height="16" viewBox="0 0 16 16" fill="none" xmlns="http://www.w3.org/2000/svg">
<g clip-path="url(#clip0)">
<path d="M3.06584 0.203907C2.65365 -0.0442202 2.16239 -0.0664079 1.73395 0.140157L8.91746 7.33898L11.2662 4.97927L3.06584 0.203907ZM1.07395 0.806413C0.983321 0.99829 0.93457 1.21173 0.93457 1.43142V14.5997C0.93457 14.8203 0.983633 15.0306 1.0752 15.2184L8.25589 8.00367L1.07395 0.806413ZM8.91843 8.66743L1.74648 15.8734C1.9368 15.9616 2.1393 16 2.34149 16C2.59118 16 2.84025 15.9403 3.06587 15.8047L11.2678 11.0221L8.91843 8.66743ZM14.3894 6.79803C14.3866 6.79616 14.3835 6.79428 14.3807 6.79272L12.1038 5.46677L9.57969 8.00273L12.1053 10.5337C12.1053 10.5337 14.3866 9.20368 14.3894 9.20212C14.8129 8.94493 15.0657 8.49555 15.0657 7.99992C15.0657 7.50429 14.8129 7.05491 14.3894 6.79803Z" fill="white"/>
</g>
<defs>
<clipPath id="clip0">
<rect width="16" height="16" fill="white"/>
</clipPath>
</defs>
</svg>
