<svg width="16" height="16" viewBox="0 0 16 16" fill="none" xmlns="http://www.w3.org/2000/svg">
<path d="M14.8452 4.2593L11.7408 1.15463C11.5864 0.999486 11.4028 0.876481 11.2005 0.79272C10.9983 0.70896 10.7814 0.666105 10.5625 0.666631C10.3436 0.666093 10.1267 0.708976 9.92444 0.792797C9.72218 0.876618 9.53855 0.999715 9.38418 1.15496L6.82018 3.71896C6.50762 4.03152 6.33203 4.45544 6.33203 4.89746C6.33203 5.33949 6.50762 5.7634 6.82018 6.07596L7.42951 6.6853L8.37218 5.74263L7.76251 5.1333C7.70002 5.07079 7.66491 4.98602 7.66491 4.89763C7.66491 4.80924 7.70002 4.72447 7.76251 4.66196L10.3265 2.09796C10.3575 2.06697 10.3942 2.04239 10.4347 2.02561C10.4752 2.00884 10.5185 2.0002 10.5623 2.0002C10.6061 2.0002 10.6495 2.00884 10.69 2.02561C10.7305 2.04239 10.7672 2.06697 10.7982 2.09796L13.9025 5.2023C13.9335 5.23326 13.9581 5.27002 13.9749 5.31048C13.9916 5.35095 14.0003 5.39433 14.0003 5.43813C14.0003 5.48194 13.9916 5.52531 13.9749 5.56578C13.9581 5.60624 13.9335 5.64301 13.9025 5.67396L11.3382 8.23796C11.2757 8.30035 11.191 8.33539 11.1027 8.33539C11.0144 8.33539 10.9297 8.30035 10.8672 8.23796L10.2575 7.6283L9.31484 8.5713L9.92418 9.18096C10.2367 9.49352 10.6607 9.66911 11.1027 9.66911C11.5447 9.66911 11.9686 9.49352 12.2812 9.18096L14.8452 6.61696C15.1577 6.3044 15.3333 5.88049 15.3333 5.43846C15.3333 4.99644 15.1577 4.57252 14.8452 4.25996V4.2593Z" fill="white"/>
<path d="M4.25966 14.8449L1.155 11.7406C0.999853 11.5862 0.876847 11.4025 0.793087 11.2003C0.709326 10.998 0.666471 10.7812 0.666997 10.5623C0.66646 10.3433 0.709342 10.1265 0.793163 9.9242C0.876985 9.72194 1.00008 9.53831 1.15533 9.38393L3.71933 6.81993C4.03189 6.50738 4.45581 6.33179 4.89783 6.33179C5.33985 6.33179 5.76377 6.50738 6.07633 6.81993L6.68566 7.42926L5.743 8.37193L5.13366 7.76226C5.07115 7.69977 4.98638 7.66467 4.898 7.66467C4.80961 7.66467 4.72484 7.69977 4.66233 7.76226L2.098 10.3263C2.067 10.3572 2.04242 10.394 2.02564 10.4345C2.00887 10.4749 2.00023 10.5183 2.00023 10.5621C2.00023 10.6059 2.00887 10.6493 2.02564 10.6897C2.04242 10.7302 2.067 10.767 2.098 10.7979L5.20233 13.9023C5.23329 13.9333 5.27005 13.9578 5.31052 13.9746C5.35098 13.9914 5.39436 14 5.43816 14C5.48197 14 5.52534 13.9914 5.56581 13.9746C5.60628 13.9578 5.64304 13.9333 5.674 13.9023L8.238 11.3379C8.30038 11.2754 8.33543 11.1907 8.33543 11.1024C8.33543 11.0141 8.30038 10.9294 8.238 10.8669L7.62833 10.2573L8.57133 9.3146L9.181 9.92393C9.49355 10.2365 9.66914 10.6604 9.66914 11.1024C9.66914 11.5445 9.49355 11.9684 9.181 12.2809L6.617 14.8449C6.30444 15.1575 5.88052 15.3331 5.4385 15.3331C4.99648 15.3331 4.57256 15.1575 4.26 14.8449H4.25966Z" fill="white"/>
<path d="M5.6675 10.9999C5.53567 10.9999 5.4068 10.9607 5.2972 10.8875C5.18759 10.8142 5.10216 10.7101 5.05172 10.5883C5.00127 10.4665 4.98807 10.3325 5.01378 10.2032C5.03949 10.0739 5.10296 9.95513 5.19617 9.86189L9.86283 5.19522C9.92433 5.13155 9.9979 5.08076 10.0792 5.04582C10.1606 5.01088 10.248 4.99249 10.3366 4.99172C10.4251 4.99096 10.5129 5.00782 10.5948 5.04134C10.6767 5.07486 10.7512 5.12437 10.8138 5.18696C10.8764 5.24956 10.9259 5.32399 10.9594 5.40592C10.9929 5.48785 11.0098 5.57564 11.009 5.66416C11.0082 5.75268 10.9898 5.84016 10.9549 5.92149C10.92 6.00283 10.8692 6.07639 10.8055 6.13789L6.13883 10.8046C6.07703 10.8666 6.00357 10.9158 5.92268 10.9493C5.84179 10.9828 5.75506 11 5.6675 10.9999Z" fill="white"/>
</svg>
