<svg xmlns="http://www.w3.org/2000/svg" width="435" height="836" fill="none" viewBox="0 0 435 836">
    <mask id="vdi2zw0q0a" width="435" height="836" x="0" y="0" maskUnits="userSpaceOnUse">
        <path fill="#C4C4C4" d="M0 0H435V836H0z"/>
    </mask>
    <g mask="url(#vdi2zw0q0a)">
        <path stroke="#FFF1F4" stroke-width="8" d="M333.425 359.246c21.865 21.865 21.865 57.315 0 79.179-21.864 21.865-57.314 21.865-79.179 0-21.864-21.864-21.864-57.314 0-79.179 21.865-21.864 57.315-21.864 79.179 0z"/>
        <path fill="#FFFAEB" d="M363.458 174.458c9.289-9.289 9.289-24.35 0-33.639-9.289-9.289-24.35-9.289-33.639 0-9.289 9.289-9.289 24.35 0 33.639 9.289 9.289 24.35 9.289 33.639 0z"/>
        <path fill="#F4F9FF" d="M468 434c-108.8 0-197 88.2-197 197s88.2 197 197 197 197-88.2 197-197-88.2-197-197-197zm0 331.886c-74.5 0-134.89-60.395-134.89-134.89 0-74.496 60.395-134.89 134.89-134.89 74.5 0 134.89 60.394 134.89 134.89 0 74.495-60.39 134.89-134.89 134.89z"/>
        <circle cx="197" cy="11" r="135" stroke="#E6F1FF" stroke-width="24"/>
    </g>
</svg>
