<svg width="1440" height="836" viewBox="0 0 1440 836" fill="none" xmlns="http://www.w3.org/2000/svg">
<mask id="mask0" mask-type="alpha" maskUnits="userSpaceOnUse" x="0" y="0" width="1440" height="836">
<rect width="1440" height="836" fill="#C4C4C4"/>
</mask>
<g mask="url(#mask0)">
<path d="M47.3115 648.245C69.1761 670.109 69.1761 705.559 47.3115 727.424C25.4468 749.288 -10.0028 749.288 -31.8675 727.424C-53.7322 705.559 -53.7322 670.109 -31.8675 648.245C-10.0028 626.38 25.4468 626.38 47.3115 648.245Z" stroke="#F4F9FF" stroke-width="8"/>
<path d="M1338.43 359.246C1360.29 381.111 1360.29 416.561 1338.43 438.425C1316.56 460.29 1281.11 460.29 1259.25 438.425C1237.38 416.561 1237.38 381.111 1259.25 359.246C1281.11 337.382 1316.56 337.382 1338.43 359.246Z" stroke="#FFF1F4" stroke-width="8"/>
<path d="M107.957 568.719C116.766 559.909 116.766 545.627 107.957 536.818C99.1478 528.008 84.8652 528.008 76.056 536.818C67.2468 545.627 67.2468 559.909 76.056 568.719C84.8652 577.528 99.1478 577.528 107.957 568.719Z" fill="#F4F9FF"/>
<path d="M1368.46 174.458C1377.75 165.169 1377.75 150.108 1368.46 140.819C1359.17 131.53 1344.11 131.53 1334.82 140.819C1325.53 150.108 1325.53 165.169 1334.82 174.458C1344.11 183.747 1359.17 183.747 1368.46 174.458Z" fill="#FFFAEB"/>
<path d="M1473 434C1364.2 434 1276 522.2 1276 631C1276 739.801 1364.2 828 1473 828C1581.8 828 1670 739.801 1670 631C1670 522.2 1581.8 434 1473 434ZM1473 765.886C1398.5 765.886 1338.11 705.491 1338.11 630.996C1338.11 556.5 1398.5 496.106 1473 496.106C1547.5 496.106 1607.89 556.5 1607.89 630.996C1607.89 705.491 1547.5 765.886 1473 765.886Z" fill="#F4F9FF"/>
<circle cx="1202" cy="11" r="135" stroke="#E6F1FF" stroke-width="24"/>
<circle cx="10.5828" cy="101.426" r="158.583" stroke="#FFF1F4" stroke-width="24"/>
</g>
</svg>
