<svg width="17" height="12" viewBox="0 0 17 12" fill="none" xmlns="http://www.w3.org/2000/svg">
<path d="M13.7594 0.374803L5.33705 8.77714L2.26816 5.71556C2.01574 5.47234 1.67766 5.33776 1.32675 5.3408C0.975828 5.34384 0.640147 5.48427 0.392001 5.73182C0.143855 5.97937 0.00309997 6.31426 5.05941e-05 6.66434C-0.00299879 7.01442 0.131902 7.35169 0.375698 7.60351L4.39082 11.6091C4.64181 11.8594 4.98217 12 5.33705 12C5.69194 12 6.0323 11.8594 6.28329 11.6091L15.6519 2.26276C15.8957 2.01094 16.0306 1.67367 16.0276 1.32359C16.0245 0.973504 15.8838 0.638622 15.6356 0.391067C15.3875 0.143513 15.0518 0.00309259 14.7009 5.04736e-05C14.3499 -0.00299164 14.0119 0.131588 13.7594 0.374803Z" fill="white"/>
</svg>
