<svg width="11" height="8" viewBox="0 0 11 8" fill="none" xmlns="http://www.w3.org/2000/svg">
<path d="M9.17297 0.249869L3.55804 5.85143L1.51211 3.81037C1.34383 3.64823 1.11844 3.55851 0.884497 3.56053C0.650552 3.56256 0.426764 3.65618 0.261334 3.82121C0.0959036 3.98625 0.00206665 4.2095 3.37294e-05 4.44289C-0.00199919 4.67628 0.0879346 4.90113 0.250465 5.06901L2.92722 7.73938C3.09454 7.90626 3.32144 8 3.55804 8C3.79463 8 4.02154 7.90626 4.18886 7.73938L10.4346 1.50851C10.5971 1.34063 10.6871 1.11578 10.685 0.882391C10.683 0.649003 10.5892 0.425748 10.4237 0.260712C10.2583 0.0956752 10.0345 0.00206173 9.80058 3.36491e-05C9.56663 -0.00199443 9.34125 0.0877251 9.17297 0.249869Z" fill="white"/>
</svg>
