<svg width="80" height="80" viewBox="0 0 80 80" fill="none" xmlns="http://www.w3.org/2000/svg">
<g clip-path="url(#clip0)">
<path d="M38.8381 49.7503H41.1828V64.4263H38.8381V49.7503Z" fill="#325A93"/>
<path d="M55.9401 65.6157V68.8747C55.9401 69.5218 55.4164 70.047 54.7678 70.047H25.2521C24.605 70.047 24.0798 69.5218 24.0798 68.8747V65.6157C24.0798 63.6665 25.6648 62.0816 27.614 62.0816H52.4075C54.3551 62.0816 55.9401 63.6665 55.9401 65.6157Z" fill="#00377B"/>
<path d="M50.8931 44.2062L49.33 51.1791C49.2097 51.7153 48.7345 52.0951 48.1858 52.0951H31.8345C31.2858 52.0951 30.8107 51.7153 30.6903 51.1791L29.1272 44.2062C29.0506 43.8592 29.1335 43.495 29.357 43.2168C29.579 42.9386 29.915 42.7776 30.2714 42.7776H49.7489C50.1053 42.7776 50.4414 42.9386 50.6649 43.2168C50.8868 43.495 50.9712 43.8592 50.8931 44.2062Z" fill="#00377B"/>
<path d="M55.9403 65.6157V68.8747C55.9403 69.5218 55.4167 70.047 54.768 70.047H50.0788C50.7274 70.047 51.2511 69.5218 51.2511 68.8747V65.6157C51.2511 63.6634 49.6692 62.0816 47.7185 62.0816H52.4077C54.3553 62.0816 55.9403 63.6665 55.9403 65.6157Z" fill="#0D2542"/>
<path d="M50.8929 44.2062L49.3298 51.1791C49.2094 51.7153 48.7342 52.0951 48.1856 52.0951H43.4963C44.045 52.0951 44.5202 51.7153 44.6405 51.1791L46.2036 44.2062C46.3115 43.7264 46.1098 43.2137 45.6596 42.9417C45.4705 42.8276 45.2501 42.7776 45.0297 42.7776H49.7487C50.1051 42.7776 50.4411 42.9386 50.6647 43.2168C50.8866 43.495 50.971 43.8592 50.8929 44.2062Z" fill="#0D2542"/>
<path d="M77.6671 41.977C77.5077 42.4553 77.0591 42.7773 76.5558 42.7773H3.44425C2.94094 42.7773 2.49233 42.4553 2.3329 41.977C-0.777632 32.6658 -0.777632 22.4089 2.3329 13.0976C2.49233 12.6193 2.94094 12.2973 3.44425 12.2973H76.5558C77.0591 12.2973 77.5077 12.6193 77.6671 13.0976C80.7776 22.4089 80.7776 32.6658 77.6671 41.977Z" fill="#00377B"/>
<path d="M77.6672 41.977C77.5078 42.4553 77.0592 42.7773 76.5558 42.7773H71.5649C72.0683 42.7773 72.5169 42.4553 72.6763 41.977C75.7852 32.6658 75.7852 22.4089 72.6763 13.0976C72.5169 12.6193 72.0683 12.2973 71.5649 12.2973H76.5558C77.0592 12.2973 77.5078 12.6193 77.6672 13.0976C80.7777 22.4089 80.7777 32.6658 77.6672 41.977Z" fill="#0D2542"/>
<path d="M67.7102 44.2718C67.5664 44.7751 67.1069 45.1221 66.5833 45.1221H13.4385C12.9149 45.1221 12.4554 44.7751 12.3116 44.2718C9.18228 33.324 9.18228 21.7509 12.3116 10.8031C12.4554 10.2998 12.9149 9.95279 13.4385 9.95279H66.5833C67.1069 9.95279 67.5664 10.2998 67.7102 10.8031C70.838 21.7509 70.838 33.324 67.7102 44.2718Z" fill="#325A93"/>
<path d="M67.7103 44.2718C67.5665 44.7751 67.107 45.1221 66.5833 45.1221H61.1125C61.6362 45.1221 62.0957 44.7751 62.2395 44.2718C65.3672 33.324 65.3672 21.7509 62.2395 10.8031C62.0957 10.2998 61.6362 9.95279 61.1125 9.95279H66.5833C67.107 9.95279 67.5665 10.2998 67.7103 10.8031C70.838 21.7509 70.838 33.324 67.7103 44.2718Z" fill="#132D77"/>
<path d="M42.9174 39.8304C49.7157 38.2234 53.9242 31.4095 52.3171 24.6112C50.7101 17.8128 43.8962 13.6044 37.0979 15.2114C30.2995 16.8184 26.0911 23.6323 27.6981 30.4307C29.3051 37.229 36.119 41.4374 42.9174 39.8304Z" fill="#132D77"/>
<path d="M44.511 23.2415C44.2898 23.01 43.9834 22.8788 43.6632 22.8788H36.3577C36.0374 22.8788 35.731 23.01 35.5098 23.2415C34.3997 24.4041 33.7886 25.9297 33.7886 27.5375C33.7886 29.1452 34.3999 30.6711 35.5098 31.8336C35.731 32.0651 36.0374 32.1962 36.3577 32.1962H43.6632C43.9836 32.1962 44.29 32.0651 44.5111 31.8334C45.6211 30.6708 46.2324 29.1452 46.2324 27.5375C46.2324 25.9297 45.6211 24.4041 44.511 23.2415Z" fill="#051B4C"/>
<path d="M60.3173 23.7618C59.6697 23.7618 59.145 24.2865 59.145 24.9341V30.1409C59.145 30.7884 59.6697 31.3132 60.3173 31.3132C60.9649 31.3132 61.4897 30.7884 61.4897 30.1409V24.9341C61.4897 24.2867 60.9649 23.7618 60.3173 23.7618Z" fill="#132D77"/>
<path d="M19.7036 23.7618C19.0561 23.7618 18.5312 24.2865 18.5312 24.9341V30.1409C18.5312 30.7884 19.0561 31.3132 19.7036 31.3132C20.351 31.3132 20.8759 30.7884 20.8759 30.1409V24.9341C20.8759 24.2867 20.351 23.7618 19.7036 23.7618Z" fill="#132D77"/>
</g>
<defs>
<clipPath id="clip0">
<rect width="80" height="80" fill="white"/>
</clipPath>
</defs>
</svg>
