<svg width="56" height="56" viewBox="0 0 56 56" fill="none" xmlns="http://www.w3.org/2000/svg">
<circle cx="28" cy="28" r="28" fill="#FEF6E5"/>
<path d="M21.3787 26.7573L14.6667 13.3333H22.6667L28 24" stroke="#F6C04B" stroke-width="2" stroke-miterlimit="10" stroke-linecap="round" stroke-linejoin="round"/>
<path d="M34.622 26.756L41.3333 13.3333H33.3333L28 24" stroke="#F6C04B" stroke-width="2" stroke-miterlimit="10" stroke-linecap="round" stroke-linejoin="round"/>
<path d="M28 42.6667C33.1547 42.6667 37.3333 38.488 37.3333 33.3333C37.3333 28.1787 33.1547 24 28 24C22.8453 24 18.6667 28.1787 18.6667 33.3333C18.6667 38.488 22.8453 42.6667 28 42.6667Z" stroke="#F6C04B" stroke-width="2" stroke-miterlimit="10" stroke-linecap="round" stroke-linejoin="round"/>
<path d="M28 28.5093L29.568 31.6853L33.072 32.1946L30.536 34.6666L31.1347 38.1573L28 36.5093L24.8653 38.1573L25.464 34.6666L22.928 32.1946L26.432 31.6853L28 28.5093Z" stroke="#F6C04B" stroke-width="2" stroke-miterlimit="10" stroke-linecap="round" stroke-linejoin="round"/>
</svg>
