<svg width="58" height="58" viewBox="0 0 58 58" fill="none" xmlns="http://www.w3.org/2000/svg">
<g clip-path="url(#clip0)">
<path d="M3.217 50L54.783 50C56.56 50 58 48.56 58 46.783L58 11.217C58 9.44 56.56 8 54.783 8L3.217 8C1.44 8 -1.25889e-07 9.43999 -2.81239e-07 11.217L-3.39052e-06 46.783C-3.54587e-06 48.56 1.43999 50 3.217 50Z" fill="#E7ECED"/>
<path d="M5 19L25 19L25 39L5 39L5 19Z" fill="#00377B"/>
<path d="M10.209 36.0919L12.72 34.8089C12.892 34.7219 13 34.5449 13 34.3529L13 33.5839C11.711 33.0289 10.97 31.9499 10.61 30.6009C10.067 30.4329 9.667 29.9299 9.667 29.3329L9.667 28.6659C9.667 28.1549 9.961 27.7149 10.385 27.4909C10.679 24.9839 12.336 23.9699 15 23.9699C15.126 23.9699 15.25 23.9749 15.371 23.9849C16.276 24.0569 17.192 23.8869 17.945 23.3789C18.258 23.1679 18.522 22.9439 18.707 22.7089C18.791 22.6019 18.961 22.6699 18.945 22.8059C18.918 23.0389 18.879 23.3109 18.82 23.6089C18.6 24.7159 18.731 24.5539 19.159 25.5989C19.396 26.1759 19.548 26.8169 19.619 27.4959C20.041 27.7209 20.333 28.1599 20.333 28.6689L20.333 29.3359C20.333 29.9329 19.933 30.4349 19.39 30.6039C19.03 31.9529 18.289 33.0319 17 33.5869L17 34.3499C17 34.5449 17.111 34.7239 17.286 34.8099L19.86 36.0779C20.563 36.4609 21 37.1979 21 37.9979L21 38.6089C21 38.6089 21 38.7879 21 38.8819C21 38.9239 20.989 38.9639 20.972 39.0029L9.027 39.0029C9.011 38.9609 9 38.9199 9 38.8789C9 38.7849 9 38.6059 9 38.6059L9 38.0489C9 37.2199 9.468 36.4629 10.209 36.0919Z" fill="white"/>
<path d="M44 26L53 26C53.553 26 54 26.447 54 27C54 27.553 53.553 28 53 28L44 28C43.447 28 43 27.553 43 27C43 26.447 43.447 26 44 26Z" fill="#1286BB"/>
<path d="M30 27C30 26.447 30.447 26 31 26L40 26C40.553 26 41 26.447 41 27C41 27.553 40.553 28 40 28L31 28C30.447 28 30 27.553 30 27Z" fill="#1286BB"/>
<path d="M52 31L53 31C53.553 31 54 31.447 54 32C54 32.553 53.553 33 53 33L52 33C51.447 33 51 32.553 51 32C51 31.447 51.447 31 52 31Z" fill="#1286BB"/>
<path d="M46 31L48 31C48.553 31 49 31.447 49 32C49 32.553 48.553 33 48 33L46 33C45.447 33 45 32.553 45 32C45 31.447 45.447 31 46 31Z" fill="#1286BB"/>
<path d="M41 31L42 31C42.553 31 43 31.447 43 32C43 32.553 42.553 33 42 33L41 33C40.447 33 40 32.553 40 32C40 31.447 40.447 31 41 31Z" fill="#1286BB"/>
<path d="M35 31L37 31C37.553 31 38 31.447 38 32C38 32.553 37.553 33 37 33L35 33C34.447 33 34 32.553 34 32C34 31.447 34.447 31 35 31Z" fill="#1286BB"/>
<path d="M31.71 31.29C31.891 31.479 32 31.729 32 32C32 32.27 31.891 32.5199 31.71 32.7099C31.521 32.8899 31.26 33 31 33C30.74 33 30.48 32.8899 30.29 32.7099C30.11 32.5199 30 32.26 30 32C30 31.74 30.11 31.479 30.29 31.29C30.66 30.92 31.34 30.92 31.71 31.29Z" fill="#1286BB"/>
</g>
<defs>
<clipPath id="clip0">
<rect width="58" height="58" fill="white" transform="matrix(-1 -8.74228e-08 -8.74228e-08 1 58 0)"/>
</clipPath>
</defs>
</svg>
