<svg width="58" height="58" viewBox="0 0 58 58" fill="none" xmlns="http://www.w3.org/2000/svg">
<path d="M49.0453 49.319H9.6063C8.67842 49.319 7.92192 48.5746 7.90731 47.6467L7.5814 27.0153C7.58129 27.0064 7.58117 26.9974 7.58117 26.9885C7.58117 21.2891 9.81519 15.9165 13.8715 11.8601C17.9278 7.80384 23.3005 5.56982 28.9999 5.56982C34.6993 5.56982 40.0719 7.80373 44.1284 11.8601C48.1815 15.9133 50.4152 21.2802 50.4187 26.9745L50.7443 47.593C50.7514 48.0483 50.5757 48.4873 50.2563 48.8118C49.9368 49.1363 49.5007 49.319 49.0453 49.319Z" fill="#1286BB"/>
<path d="M44.1285 11.8601C40.072 7.80384 34.6994 5.56982 29 5.56982V49.319H49.0455C49.5009 49.319 49.937 49.1363 50.2564 48.8118C50.5758 48.4873 50.7516 48.0483 50.7445 47.593L50.4189 26.9745C50.4153 21.2803 48.1816 15.9133 44.1285 11.8601Z" fill="#00377B"/>
<path d="M1.69922 14.8398C0.760797 14.8398 0 14.079 0 13.1406V1.69922C0 0.760797 0.760797 0 1.69922 0H13.1406C14.079 0 14.8398 0.760797 14.8398 1.69922C14.8398 2.63764 14.079 3.39844 13.1406 3.39844H3.39844V13.1406C3.39844 14.079 2.63764 14.8398 1.69922 14.8398Z" fill="#FFBC00"/>
<path d="M13.1406 58H1.69922C0.760797 58 0 57.2392 0 56.3008V44.8594C0 43.921 0.760797 43.1602 1.69922 43.1602C2.63764 43.1602 3.39844 43.921 3.39844 44.8594V54.6016H13.1406C14.079 54.6016 14.8398 55.3624 14.8398 56.3008C14.8398 57.2392 14.079 58 13.1406 58Z" fill="#FFBC00"/>
<path d="M56.3008 58H44.8594C43.921 58 43.1602 57.2392 43.1602 56.3008C43.1602 55.3624 43.921 54.6016 44.8594 54.6016H54.6016V44.8594C54.6016 43.921 55.3624 43.1602 56.3008 43.1602C57.2392 43.1602 58 43.921 58 44.8594V56.3008C58 57.2392 57.2392 58 56.3008 58Z" fill="#FFBC00"/>
<path d="M56.3008 14.8398C55.3624 14.8398 54.6016 14.079 54.6016 13.1406V3.39844H44.8594C43.921 3.39844 43.1602 2.63764 43.1602 1.69922C43.1602 0.760797 43.921 0 44.8594 0H56.3008C57.2392 0 58 0.760797 58 1.69922V13.1406C58 14.079 57.2392 14.8398 56.3008 14.8398Z" fill="#FFBC00"/>
<path d="M24.0412 25.2764H12.3198C8.8921 25.2764 6.10357 28.065 6.10357 31.4927C6.10357 34.9203 8.8921 37.7089 12.3198 37.7089H24.0412V25.2764Z" fill="#FFBEAA"/>
<path d="M45.6802 25.2764H33.9429V37.7089H45.6802C49.1078 37.7089 51.8964 34.9202 51.8964 31.4926C51.8964 28.0649 49.1078 25.2764 45.6802 25.2764Z" fill="#FFA68D"/>
<path d="M29.0001 49.3189C20.7708 49.3189 14.0759 42.6239 14.0759 34.3947V27.7317C14.0759 26.1529 14.3244 24.5955 14.8147 23.1027C15.0436 22.4052 15.695 21.9336 16.4291 21.9336H19.4136C23.2123 21.9339 27.3009 19.8912 27.3009 15.4063C27.3009 14.4678 28.0617 13.707 29.0001 13.707C29.9385 13.707 30.6993 14.4678 30.6993 15.4063C30.6993 18.5501 33.1675 21.9339 38.5866 21.9339H41.571C42.3051 21.9339 42.9563 22.4053 43.1854 23.1027C43.6757 24.5952 43.9242 26.1527 43.9242 27.7318V34.3948C43.9242 42.624 37.2293 49.3189 29.0001 49.3189Z" fill="#FFCBBC"/>
<path d="M41.5709 21.9339H38.5865C33.1674 21.9339 30.6992 18.5501 30.6992 15.4063C30.6992 14.4678 29.9384 13.707 29 13.707V49.3189C37.2292 49.3189 43.9241 42.6239 43.9241 34.3947V27.7317C43.9241 26.1526 43.6756 24.5952 43.1853 23.1026C42.9561 22.4052 42.305 21.9339 41.5709 21.9339Z" fill="#FFBEAA"/>
</svg>
