<svg xmlns="http://www.w3.org/2000/svg" width="64" height="64" fill="none" viewBox="0 0 64 64">
    <circle cx="32" cy="32" r="32" fill="#C42127"/>
    <path fill="#fff" d="M51.2 38.788c0-4.766-2.734-9.018-6.828-11.087-.127 9.136-7.535 16.544-16.671 16.671 2.069 4.094 6.321 6.828 11.087 6.828 2.234 0 4.406-.595 6.315-1.726l6.043 1.672-1.672-6.043c1.13-1.909 1.726-4.081 1.726-6.316z"/>
    <path fill="#fff" d="M42.125 27.462c0-8.084-6.577-14.662-14.663-14.662-8.084 0-14.662 6.578-14.662 14.662 0 2.636.701 5.201 2.033 7.453l-1.979 7.156 7.156-1.98c2.252 1.333 4.818 2.034 7.452 2.034 8.086 0 14.663-6.577 14.663-14.663z"/>
</svg>
