<svg width="32" height="32" viewBox="0 0 32 32" fill="none" xmlns="http://www.w3.org/2000/svg">
<circle cx="16" cy="16" r="16" fill="#46AB00"/>
<path d="M21.7594 10.3748L13.3371 18.7771L10.2682 15.7156C10.0157 15.4723 9.67766 15.3378 9.32675 15.3408C8.97583 15.3438 8.64015 15.4843 8.392 15.7318C8.14386 15.9794 8.0031 16.3143 8.00005 16.6643C7.997 17.0144 8.1319 17.3517 8.3757 17.6035L12.3908 21.6091C12.6418 21.8594 12.9822 22 13.3371 22C13.6919 22 14.0323 21.8594 14.2833 21.6091L23.6519 12.2628C23.8957 12.0109 24.0306 11.6737 24.0276 11.3236C24.0245 10.9735 23.8838 10.6386 23.6356 10.3911C23.3875 10.1435 23.0518 10.0031 22.7009 10.0001C22.3499 9.99701 22.0119 10.1316 21.7594 10.3748Z" fill="white"/>
</svg>
