<svg xmlns="http://www.w3.org/2000/svg" width="52" height="52" fill="none" viewBox="0 0 52 52">
    <circle cx="26" cy="26" r="24" fill="#00377B" stroke="#fff" stroke-width="4"/>
    <path stroke="#fff" stroke-linecap="round" stroke-linejoin="round" stroke-width="2" d="M16.667 16.666V38M35.333 16.666v12M16.667 16.666c1.246-1.221 2.921-1.905 4.666-1.905 1.745 0 3.42.684 4.667 1.905 1.246 1.222 2.922 1.906 4.667 1.906 1.745 0 3.42-.684 4.666-1.905M16.667 28.666c1.246-1.221 2.921-1.905 4.666-1.905 1.745 0 3.42.684 4.667 1.905 1.246 1.222 2.922 1.906 4.667 1.906 1.745 0 3.42-.684 4.666-1.905"/>
</svg>
