<svg width="24" height="24" viewBox="0 0 24 24" fill="none" xmlns="http://www.w3.org/2000/svg">
<path d="M14.7357 20.9728V21.6741C14.7357 22.2321 14.3259 22.6963 13.7925 22.7753L13.6197 23.4123C13.5259 23.758 13.2148 24 12.8543 24H11.1407C10.7802 24 10.4691 23.758 10.3752 23.4123L10.2073 22.7753C9.66907 22.6914 9.2592 22.2321 9.2592 21.6691V20.9679C9.2592 20.5926 9.56043 20.2914 9.93574 20.2914H14.0592C14.4345 20.2963 14.7357 20.5975 14.7357 20.9728ZM17.9111 11.521C17.9111 13.116 17.279 14.563 16.2518 15.6247C15.4715 16.4346 14.9678 17.4667 14.7999 18.5679C14.7259 19.042 14.316 19.3926 13.832 19.3926H10.1629C9.68389 19.3926 9.26907 19.0469 9.19994 18.5728C9.0271 17.4716 8.51845 16.4247 7.73821 15.6198C6.7308 14.5728 6.10364 13.1506 6.08883 11.5852C6.05426 8.2963 8.67154 5.63457 11.9604 5.60988C15.2444 5.58519 17.9111 8.24198 17.9111 11.521ZM12.6666 7.94074C12.6666 7.57531 12.3703 7.27407 11.9999 7.27407C9.64932 7.27407 7.73327 9.18519 7.73327 11.5407C7.73327 11.9062 8.02957 12.2074 8.39994 12.2074C8.76537 12.2074 9.0666 11.9111 9.0666 11.5407C9.0666 9.92099 10.3851 8.60741 11.9999 8.60741C12.3703 8.60741 12.6666 8.31111 12.6666 7.94074ZM11.9999 3.66914C12.3654 3.66914 12.6666 3.37284 12.6666 3.00247V0.666667C12.6666 0.301235 12.3703 0 11.9999 0C11.6296 0 11.3333 0.296296 11.3333 0.666667V3.00247C11.3333 3.37284 11.6345 3.66914 11.9999 3.66914ZM4.15302 11.516C4.15302 11.1506 3.85673 10.8494 3.48636 10.8494H1.15055C0.785121 10.8494 0.483887 11.1457 0.483887 11.516C0.483887 11.8815 0.780183 12.1827 1.15055 12.1827H3.48636C3.85673 12.1827 4.15302 11.8864 4.15302 11.516ZM22.8493 10.8494H20.5135C20.1481 10.8494 19.8469 11.1457 19.8469 11.516C19.8469 11.8815 20.1431 12.1827 20.5135 12.1827H22.8493C23.2148 12.1827 23.516 11.8864 23.516 11.516C23.516 11.1506 23.2197 10.8494 22.8493 10.8494ZM5.51105 17.0667L3.85673 18.721C3.595 18.9827 3.595 19.4025 3.85673 19.6642C3.98512 19.7926 4.15796 19.8568 4.32586 19.8568C4.49376 19.8568 4.6666 19.7926 4.795 19.6642L6.44932 18.0099C6.71105 17.7481 6.71105 17.3284 6.44932 17.0667C6.19253 16.8049 5.76784 16.8049 5.51105 17.0667ZM18.0197 6.16296C18.1876 6.16296 18.3604 6.09877 18.4888 5.97037L20.1431 4.31605C20.4049 4.05432 20.4049 3.63457 20.1431 3.37284C19.8814 3.11111 19.4617 3.11111 19.1999 3.37284L17.5456 5.02716C17.2839 5.28889 17.2839 5.70864 17.5456 5.97037C17.6789 6.09877 17.8469 6.16296 18.0197 6.16296ZM5.51105 5.96543C5.63944 6.09383 5.81228 6.15802 5.98018 6.15802C6.14808 6.15802 6.32092 6.09383 6.44932 5.96543C6.71105 5.7037 6.71105 5.28395 6.44932 5.02222L4.795 3.3679C4.53327 3.10617 4.11352 3.10617 3.85179 3.3679C3.59006 3.62963 3.59006 4.04938 3.85179 4.31111L5.51105 5.96543ZM18.4888 17.0667C18.2271 16.8049 17.8073 16.8049 17.5456 17.0667C17.2839 17.3284 17.2839 17.7481 17.5456 18.0099L19.1999 19.6642C19.3283 19.7926 19.5012 19.8568 19.6691 19.8568C19.837 19.8568 20.0098 19.7926 20.1382 19.6642C20.3999 19.4025 20.3999 18.9827 20.1382 18.721L18.4888 17.0667Z" fill="#00377B"/>
</svg>
