<svg width="54" height="56" viewBox="0 0 54 56" fill="none" xmlns="http://www.w3.org/2000/svg">
<path d="M33.2543 48.9366V50.5728C33.2543 51.8749 32.2979 52.958 31.0535 53.1424L30.6502 54.6288C30.4313 55.4354 29.7054 56 28.8642 56H24.8658C24.0247 56 23.2988 55.4354 23.0798 54.6288L22.6881 53.1424C21.4321 52.9465 20.4757 51.8749 20.4757 50.5613V48.9251C20.4757 48.0494 21.1786 47.3465 22.0543 47.3465H31.6757C32.5514 47.358 33.2543 48.0609 33.2543 48.9366ZM40.6634 26.8823C40.6634 30.6041 39.1885 33.9802 36.7918 36.4576C34.9712 38.3473 33.7959 40.7556 33.4041 43.3251C33.2313 44.4313 32.2749 45.2494 31.1457 45.2494H22.5844C21.4667 45.2494 20.4988 44.4428 20.3375 43.3366C19.9342 40.7671 18.7473 38.3243 16.9268 36.4461C14.5761 34.0033 13.1128 30.6848 13.0782 27.0321C12.9975 19.358 19.1045 13.1473 26.7786 13.0897C34.4412 13.0321 40.6634 19.2313 40.6634 26.8823ZM28.4263 18.5284C28.4263 17.6757 27.735 16.9728 26.8708 16.9728C21.386 16.9728 16.9152 21.4321 16.9152 26.9284C16.9152 27.7811 17.6066 28.4839 18.4708 28.4839C19.3235 28.4839 20.0263 27.7926 20.0263 26.9284C20.0263 23.149 23.1029 20.084 26.8708 20.084C27.735 20.084 28.4263 19.3926 28.4263 18.5284ZM26.8708 8.56132C27.7235 8.56132 28.4263 7.86996 28.4263 7.00576V1.55556C28.4263 0.702881 27.735 0 26.8708 0C26.0066 0 25.3152 0.691358 25.3152 1.55556V7.00576C25.3152 7.86996 26.0181 8.56132 26.8708 8.56132ZM8.56132 26.8708C8.56132 26.0181 7.86996 25.3152 7.00576 25.3152H1.55556C0.702881 25.3152 0 26.0066 0 26.8708C0 27.7235 0.691358 28.4263 1.55556 28.4263H7.00576C7.86996 28.4263 8.56132 27.735 8.56132 26.8708ZM52.186 25.3152H46.7358C45.8831 25.3152 45.1803 26.0066 45.1803 26.8708C45.1803 27.7235 45.8716 28.4263 46.7358 28.4263H52.186C53.0387 28.4263 53.7416 27.735 53.7416 26.8708C53.7416 26.0181 53.0502 25.3152 52.186 25.3152ZM11.73 39.8222L7.86996 43.6823C7.25926 44.293 7.25926 45.2724 7.86996 45.8831C8.16955 46.1827 8.57284 46.3325 8.96461 46.3325C9.35638 46.3325 9.75967 46.1827 10.0593 45.8831L13.9193 42.023C14.53 41.4123 14.53 40.4329 13.9193 39.8222C13.3202 39.2115 12.3292 39.2115 11.73 39.8222ZM40.9169 14.3802C41.3086 14.3802 41.7119 14.2305 42.0115 13.9309L45.8716 10.0708C46.4823 9.46008 46.4823 8.48066 45.8716 7.86996C45.2609 7.25926 44.2815 7.25926 43.6708 7.86996L39.8107 11.73C39.2 12.3407 39.2 13.3202 39.8107 13.9309C40.1218 14.2305 40.5136 14.3802 40.9169 14.3802ZM11.73 13.9193C12.0296 14.2189 12.4329 14.3687 12.8247 14.3687C13.2165 14.3687 13.6198 14.2189 13.9193 13.9193C14.53 13.3086 14.53 12.3292 13.9193 11.7185L10.0593 7.85844C9.44856 7.24774 8.46914 7.24774 7.85844 7.85844C7.24774 8.46914 7.24774 9.44856 7.85844 10.0593L11.73 13.9193ZM42.0115 39.8222C41.4008 39.2115 40.4214 39.2115 39.8107 39.8222C39.2 40.4329 39.2 41.4123 39.8107 42.023L43.6708 45.8831C43.9704 46.1827 44.3737 46.3325 44.7654 46.3325C45.1572 46.3325 45.5605 46.1827 45.8601 45.8831C46.4708 45.2724 46.4708 44.293 45.8601 43.6823L42.0115 39.8222Z" fill="#F6C04B"/>
</svg>
