<svg width="64" height="64" viewBox="0 0 64 64" fill="none" xmlns="http://www.w3.org/2000/svg">
<path d="M42.8736 57.3494C42.8736 61.0224 39.896 64 36.223 64H11.6506C7.97762 64 5 61.0224 5 57.3494V6.65064C5 2.97762 7.97762 0 11.6506 0H36.2231C39.8961 0 42.8737 2.97762 42.8737 6.65064V57.3494H42.8736Z" fill="#00377B"/>
<path d="M39.0205 57.3494C39.0205 58.8942 37.7682 60.1465 36.2234 60.1465H11.6508C10.1059 60.1465 8.85352 58.8942 8.85352 57.3492V6.65063C8.85352 5.1057 10.1059 3.85336 11.6508 3.85336H13.2411C13.5853 3.85336 13.8934 4.06683 14.0144 4.3891L14.393 5.39739C14.8103 6.50909 15.8733 7.24546 17.0608 7.24546H30.8131C32.0006 7.24546 33.0636 6.50909 33.4811 5.39739L33.8596 4.3891C33.9806 4.06683 34.2887 3.85336 34.633 3.85336H36.2234C37.7682 3.85336 39.0205 5.1057 39.0205 6.65051V57.3494Z" fill="#2BACE2"/>
<path d="M53.4015 44.6862H28.642L25.7011 47.6795C25.0324 48.3602 23.875 47.8867 23.875 46.9325V30.0499C23.875 26.9157 26.4158 24.375 29.55 24.375H53.4015C56.5357 24.375 59.0764 26.9157 59.0764 30.0499V39.0113C59.0766 42.1455 56.5358 44.6862 53.4015 44.6862Z" fill="#FFBC00"/>
<path d="M54.673 31.7083H29.7363C29.2041 31.7083 28.7729 31.2771 28.7729 30.7449C28.7729 30.2128 29.2041 29.7816 29.7363 29.7816H54.673C55.2052 29.7816 55.6364 30.2128 55.6364 30.7449C55.6364 31.2771 55.205 31.7083 54.673 31.7083Z" fill="#FCFCFC"/>
<path d="M54.673 37.151H35.3471C34.815 37.151 34.3838 36.7198 34.3838 36.1877C34.3838 35.6555 34.815 35.2243 35.3471 35.2243H54.673C55.2051 35.2243 55.6363 35.6555 55.6363 36.1877C55.6363 36.7198 55.205 37.151 54.673 37.151Z" fill="#FCFCFC"/>
<path d="M31.0609 37.151H29.7363C29.2041 37.151 28.7729 36.7198 28.7729 36.1877C28.7729 35.6555 29.2041 35.2243 29.7363 35.2243H31.0609C31.5931 35.2243 32.0243 35.6555 32.0243 36.1877C32.0243 36.7198 31.5931 37.151 31.0609 37.151Z" fill="#FCFCFC"/>
</svg>
