<svg width="24" height="24" viewBox="0 0 24 24" fill="none" xmlns="http://www.w3.org/2000/svg">
<path d="M23.8995 20.625L12.6495 1.125C12.5783 1.01795 12.4817 0.930153 12.3684 0.869424C12.2551 0.808695 12.1285 0.776917 12 0.776917C11.8714 0.776917 11.7448 0.808695 11.6315 0.869424C11.5182 0.930153 11.4217 1.01795 11.3505 1.125L0.100481 20.625C0.0346555 20.739 8.36153e-07 20.8683 0 21C-8.36123e-07 21.1317 0.0346522 21.261 0.100476 21.375C0.1663 21.489 0.260976 21.5837 0.374988 21.6495C0.488999 21.7153 0.61833 21.75 0.749981 21.75H23.25C23.3816 21.75 23.511 21.7153 23.625 21.6495C23.739 21.5837 23.8337 21.489 23.8995 21.375C23.9653 21.261 24 21.1317 24 21C24 20.8683 23.9653 20.739 23.8995 20.625ZM13.2855 7.5L12.75 15H11.25L10.7145 7.5H13.2855ZM12 19.5C11.7362 19.5 11.4784 19.4218 11.2591 19.2753C11.0398 19.1287 10.8689 18.9205 10.768 18.6768C10.6671 18.4331 10.6406 18.165 10.6921 17.9064C10.7436 17.6477 10.8706 17.4101 11.0571 17.2236C11.2435 17.0371 11.4812 16.9101 11.7398 16.8586C11.9985 16.8072 12.2666 16.8336 12.5103 16.9345C12.754 17.0354 12.9622 17.2064 13.1087 17.4257C13.2553 17.6449 13.3335 17.9028 13.3335 18.1665C13.3335 18.5202 13.193 18.8594 12.9429 19.1094C12.6928 19.3595 12.3536 19.5 12 19.5Z" fill="#FFBC00"/>
</svg>
