<svg width="1440" height="620" viewBox="0 0 1440 620" fill="none" xmlns="http://www.w3.org/2000/svg">
<mask id="mask0" mask-type="alpha" maskUnits="userSpaceOnUse" x="0" y="0" width="1440" height="620">
<rect width="1440" height="620" fill="#C4C4C4"/>
</mask>
<g mask="url(#mask0)">
<path d="M1440 -203H0V619.857H1440V-203Z" fill="url(#paint0_linear)"/>
<path opacity="0.5" d="M1440 309.459V-203H420.232C554.366 -181.433 697.947 -141.401 842.63 -82.3362C1094.44 20.4633 1303.36 162.028 1440 309.459Z" fill="url(#paint1_linear)"/>
<path opacity="0.5" d="M1440 39.0846V-203H0V29.7945C183.283 -57.4613 434.008 -111.235 710.504 -111.235C996.677 -111.235 1255.24 -53.6185 1440 39.0846Z" fill="url(#paint2_linear)"/>
<path opacity="0.5" d="M75.2338 619.857C44.1463 566.865 27.179 509.644 27.179 449.954C27.179 176.37 383.534 -45.4064 823.12 -45.4064C1071.92 -45.4064 1294.04 25.6391 1440 136.914V-203H0V619.857H75.2338Z" fill="url(#paint3_linear)"/>
<path opacity="0.5" d="M1440 89.4352V-203H0V204.224C430.371 -274.819 1218.29 -1.09554 1440 89.4352Z" fill="url(#paint4_linear)"/>
<path opacity="0.5" d="M1440 475.372V-203H0V292.352C513.693 -132.712 1167.85 269.394 1440 475.372Z" fill="url(#paint5_linear)"/>
</g>
<defs>
<linearGradient id="paint0_linear" x1="716.552" y1="453.233" x2="726.427" y2="-247.89" gradientUnits="userSpaceOnUse">
<stop stop-color="white"/>
<stop offset="0.4991" stop-color="#C3EBF4"/>
<stop offset="0.8883" stop-color="#0664AC"/>
<stop offset="0.9906" stop-color="#0640AC"/>
</linearGradient>
<linearGradient id="paint1_linear" x1="924.44" y1="456.115" x2="934.314" y2="-244.961" gradientUnits="userSpaceOnUse">
<stop stop-color="white"/>
<stop offset="1" stop-color="white" stop-opacity="0"/>
</linearGradient>
<linearGradient id="paint2_linear" x1="452.931" y1="140.601" x2="710.324" y2="-73.8937" gradientUnits="userSpaceOnUse">
<stop stop-color="white"/>
<stop offset="1" stop-color="white" stop-opacity="0"/>
</linearGradient>
<linearGradient id="paint3_linear" x1="477.435" y1="169.095" x2="734.675" y2="-45.2728" gradientUnits="userSpaceOnUse">
<stop stop-color="white"/>
<stop offset="1" stop-color="white" stop-opacity="0"/>
</linearGradient>
<linearGradient id="paint4_linear" x1="712.817" y1="453.226" x2="722.692" y2="-247.946" gradientUnits="userSpaceOnUse">
<stop stop-color="white"/>
<stop offset="1" stop-color="white" stop-opacity="0"/>
</linearGradient>
<linearGradient id="paint5_linear" x1="683.067" y1="240.419" x2="831.401" y2="-178.212" gradientUnits="userSpaceOnUse">
<stop stop-color="white"/>
<stop offset="0.4991" stop-color="#C3EBF4"/>
<stop offset="0.8883" stop-color="#0664AC"/>
<stop offset="0.9906" stop-color="#0640AC"/>
</linearGradient>
</defs>
</svg>
